<?xml version="1.0" encoding="UTF-8"?><svg xmlns="http://www.w3.org/2000/svg" viewBox="0 0 815.63 176.15"><defs><style>.d{font-size:96.64px;letter-spacing:.05em;}.e,.f{fill:#c2e5f7;}.g,.h{fill:#fff;}.f{font-family:ShowcardGothic-Reg, Showcard Gothic;}.f,.h{stroke:#1d1d1b;stroke-miterlimit:10;}.i{fill:#bbbaba;}.j{letter-spacing:.05em;}.j,.k{font-size:77.31px;}.k{letter-spacing:.05em;}.l{fill:#d2d2d2;}.m{fill:#1d1d1b;}</style></defs><g id="a"><path class="m" d="M100.22,84.27c1.19-7.74,2.36-15.51,2.49-23.36,.01-.8-1.24-.8-1.25,0-.13,7.74-1.28,15.39-2.45,23.02-.12,.79,1.08,1.13,1.21,.33h0Z"/><g><path class="l" d="M216.31,136.04c-4.35,3.96-12.49,7.28-21.45,9.32-.88,.2-1.81,.37-2.79,.54-8.44,2.26-18.42,6.23-24.93,10.66-.54,.37-.83,.81-1.42,.86-.43,.05-1.09-.04-1.35-.29-2.15-2.04-2.41-6.59-1.78-9.26,.45-1.9,1.37-3.21,2.56-4.48-12.75,1.38-25.85,.95-38.7,.48-.97-.04-1.93-.07-2.9-.11,.01,1.11-.5,2.23-1.26,3.07-.99,1.11-2.3,1.93-3.71,2.41-6.96,2.38-14.36,3.46-21.7,3.02-2.35-.15-5.49-.49-7.6-1.54-2.1-1.04-3.18-2.25-3.88-4.5-.41-1.32-.41-2.73-.31-4.11-8.49-.79-16.81-2.49-24.05-6.81-2.53-1.52-4.87-3.31-7.06-5.29-2.23-2-4.31-4.18-6.3-6.41-3.78-4.24-7.34-8.81-9.36-14.11-1.26-3.29-1.89-6.75-2.22-10.27-.22-2.37-.31-4.76-.36-7.13-.44-20.57,1.83-42.1,12.94-59.41,3.35-5.23,7.64-10.11,13.31-12.65,9.29-4.17,20.81-.95,28.13,6.14,2.75,2.67,4.96,5.78,6.71,9.17-1.36-.47-2.9-.38-3.97-.15-4.83,1.07-7.73,1.88-12.27,3.31-.1-.75-.73-1.34-1.43-1.4-.53-.05-1.24,.14-1.76,.18-.75,.07-1.48-.27-2.23-.29-.71-.01-1.55,.51-1.47,1.19-3.72-1.35-7.49-2.68-11.36-3.39,.24-1.1,.4-2.34,.39-3.38-.01-1.16-.29-2.63-1.21-3.34-.29-.31-.66-.5-1.08-.59-.16-.06-.33-.11-.48-.12-.8-.07-1.59,.21-2.3,.69-.1,.06-.19,.12-.27,.18-.74,.51-1.34,1.22-1.74,2.02l-.09,.18-.06,.12c-.03,.06-.05,.12-.07,.18-.5,1.13-.65,2.39-.72,3.65-.62,.1-1.24,.26-1.81,.53-2.14,.99-3.36,3.26-4.23,5.44-1.08,2.69-1.75,6.09,.22,8.21,.76,.82,1.81,1.31,2.85,1.71,.01,0,.02,.01,.03,.01-5.55,16.31-4.35,34.29,.24,50.98,1.3,4.74,3.24,9.66,5.95,13.78,1.47,2.24,3.32,4.28,5.46,5.87-.73-1.91-1.17-3.96-1.57-5.98-2.2-11.11-3.75-22.39-3.73-33.71,.01-3.72,.19-7.44,.57-11.14,.38-3.81,.97-7.61,1.82-11.35,.51-2.33,1.12-4.63,1.84-6.9,2.04-.17,4.03-.64,5.88-1.43,1.01,.84,1.9,1.33,3.48,1.98,1.84,.77,4.17,.91,6.15,.64,2-.27,4.33-1.45,5.39-2.29,1.71,.71,3.33,1.22,4.97,1.48,.52,2.31,.92,4.65,1.2,7,.49,3.95,.65,7.95,.53,11.95-.11,4.4-.56,8.81-1.26,13.15-1.86,11.56-5.45,22.77-9.34,33.82-.21,.6-.42,1.19-.64,1.79,1.51-1.32,2.87-2.86,4.06-4.49,2.57-3.53,5.07-6.98,7.54-11.3,4.59-8.04,7.02-18.7,8.04-26.55,.82-6.28,1.44-12.86,1.25-19.31-.08-2.58-.29-5.15-.67-7.66,.25-.19,.5-.43,.74-.69,.57-.63,1.04-1.24,1.41-1.87,.36,1.88,.61,3.77,.77,5.65,.21,2.41,.28,4.82,.24,7.22,3.68,3.23,8.59,5.13,13.48,5.94,6.59,1.09,13.33,.48,20.01,.35,26.2-.53,49.96,3.13,65.79,10.96,12.77,6.32,17.76,13.7,20.3,18.04,2.38,4.09,4.36,9.14,4.59,14.17,.77,16.34-5.93,22-9.95,25.66Z"/><path class="m" d="M215.86,135.59c-3.2,2.86-7.26,4.74-11.25,6.23-2.37,.88-4.78,1.63-7.22,2.27s-4.73,.97-7.05,1.63c-4.55,1.3-9.03,2.92-13.36,4.83-2.2,.97-4.37,2.02-6.47,3.2-.89,.5-1.77,1.02-2.63,1.57s-2.1,1.89-3.08,1.3c-1.73-1.04-1.92-4.47-1.89-6.22,.05-2.56,.94-4.68,2.67-6.57,.33-.36,.13-1.13-.44-1.07-13.81,1.47-27.75,.92-41.6,.37-.35-.01-.61,.3-.62,.62-.18,4.38-6.12,5.51-9.46,6.33-3.97,.98-8.04,1.53-12.13,1.62-3.55,.08-7.5,.07-10.88-1.17-3.79-1.4-4.99-4.58-4.74-8.43,.02-.36-.31-.59-.62-.62-6.66-.63-13.36-1.81-19.5-4.54s-11.54-7.34-16.19-12.39-8.83-10.17-10.93-16.53-2.15-13.74-2.15-20.6c0-12.78,1.17-25.72,5.16-37.92,1.98-6.04,4.67-11.86,8.17-17.17s7.74-9.89,13.53-12.13,12.82-1.6,18.6,1.04c6.44,2.95,11.26,8.19,14.51,14.41l.71-.92c-2.77-.84-5.59,.11-8.3,.79s-5.53,1.51-8.27,2.37l.77,.44c-.17-.7-.56-1.31-1.22-1.63-.96-.47-1.94-.01-2.94-.07s-1.86-.48-2.8-.07c-.71,.31-1.11,.86-1.16,1.62l.79-.6c-3.72-1.35-7.46-2.65-11.36-3.39l.44,.77c.57-2.79,1.02-7.84-2.98-8.22-1.75-.17-3.52,1.16-4.46,2.54-1.03,1.51-1.3,3.33-1.42,5.11l.46-.6c-4.09,.74-6.14,4.63-7.13,8.34-.47,1.77-.65,3.73,.09,5.45s2.38,2.74,4.09,3.31l-.44-.77c-3.23,9.59-4.2,19.79-3.51,29.86,.34,4.96,1.07,9.88,2.11,14.74s2.25,9.5,4.15,13.98c2.08,4.91,4.89,9.49,9.19,12.75,.43,.32,1.1-.22,.92-.71-1.49-4.03-2.08-8.44-2.8-12.67-.78-4.57-1.42-9.17-1.85-13.78-.84-9-.88-18.09,.27-27.07,.66-5.16,1.76-10.27,3.31-15.23l-.6,.46c2.09-.2,4.1-.65,6.05-1.45l-.61-.16c2.84,2.3,6.45,3.29,10.07,2.8,1.65-.22,3.26-.86,4.7-1.7,.35-.21,.6-.43,.95-.44s.9,.34,1.26,.47c1.07,.37,2.17,.65,3.29,.84l-.44-.44c3.94,17.8,.58,36.05-4.73,53.19-1.48,4.76-3.07,9.5-4.78,14.19-.23,.63,.62,.99,1.04,.61,3.54-3.15,6.22-7.31,8.81-11.24s4.86-8.14,6.52-12.63c3.28-8.9,4.71-18.37,5.44-27.78,.48-6.09,.5-12.22-.39-18.27l-.16,.61c.9-.74,1.64-1.69,2.25-2.69l-1.14-.15c.76,4.06,.94,8.11,.99,12.22,.02,1.26,1.27,1.86,2.24,2.53,1.41,.97,2.92,1.77,4.5,2.44,6.79,2.87,14.25,2.86,21.49,2.62,14.55-.48,29.13-.14,43.51,2.31,11.94,2.03,24.13,5.37,34.35,12.09,8.75,5.76,16.13,14.88,17.82,25.47,1,6.27,.28,13.59-2.6,19.31-1.68,3.34-4.17,5.91-6.91,8.4-.6,.54,.29,1.42,.88,.88,2.43-2.21,4.71-4.49,6.39-7.34,2.56-4.35,3.58-9.41,3.77-14.41,.13-3.46-.07-6.89-1.01-10.24s-2.27-6.22-3.96-9.04c-2.08-3.47-4.62-6.63-7.62-9.36-8.89-8.12-20.64-12.5-32.19-15.23-13.66-3.23-27.82-4.33-41.83-4.32-8.79,0-17.96,1.31-26.61-.68-1.98-.45-3.93-1.08-5.77-1.94-.88-.41-1.73-.86-2.55-1.36-.67-.41-2.17-1.12-2.54-1.81-.41-.78-.12-2.3-.15-3.19-.03-1.13-.09-2.25-.18-3.37-.17-2.11-.44-4.21-.83-6.3-.1-.55-.88-.58-1.14-.15-.35,.56-.73,1.09-1.17,1.59-.24,.27-.75,.6-.93,.91-.2,.35-.1,.6-.04,1.02,.11,.81,.21,1.63,.29,2.45,.27,2.81,.36,5.63,.31,8.46-.09,5.56-.64,11.13-1.44,16.63-1.36,9.37-3.93,18.72-8.87,26.86-1.47,2.43-3.08,4.77-4.73,7.08s-3.46,4.77-5.69,6.75l1.04,.61c6.17-16.95,11.63-34.78,11.29-53-.1-5.06-.68-10.1-1.78-15.04-.04-.19-.24-.4-.44-.44-.98-.17-1.93-.4-2.87-.7-.65-.21-1.59-.85-2.26-.8-.51,.03-1.05,.6-1.48,.85-.8,.46-1.66,.84-2.54,1.11-3.58,1.11-7.66,.24-10.56-2.11-.16-.13-.39-.25-.61-.16-1.84,.76-3.74,1.22-5.71,1.41-.29,.03-.51,.18-.6,.46-5.51,17.57-4.99,36.35-2.13,54.35,.79,5,1.44,10.3,3.2,15.06l.92-.71c-7.67-5.82-10.57-16.11-12.57-25.08-2.09-9.42-3.02-19.15-2.15-28.78,.49-5.47,1.61-10.86,3.36-16.06,.11-.33-.13-.67-.44-.77-1.66-.55-3.14-1.64-3.55-3.42-.34-1.5-.01-3.09,.45-4.53,.98-3.08,2.61-6.13,6.04-6.75,.28-.05,.44-.34,.46-.6,.08-1.28,.24-2.56,.81-3.72,.6-1.23,1.95-2.62,3.42-2.68,3.29-.13,2.57,4.71,2.18,6.65-.06,.31,.09,.7,.44,.77,3.9,.74,7.64,2.04,11.36,3.39,.41,.15,.77-.23,.79-.6,.07-1.07,2.35-.24,3.08-.27,1-.05,2.26-.63,2.59,.76,.08,.32,.45,.54,.77,.44,2.49-.78,4.98-1.53,7.51-2.18,2.67-.68,5.66-1.8,8.4-.98,.55,.16,.95-.45,.71-.92-2.95-5.65-7.19-10.59-12.78-13.75-5.04-2.84-10.98-4.28-16.75-3.52-12.82,1.69-20.61,14.24-25.21,25.15-5.25,12.43-7.12,26.01-7.48,39.42-.19,7-.32,14.25,.91,21.17s4.57,12.67,8.96,17.97c5.06,6.11,10.86,12,18,15.64s14.49,4.92,22.08,5.64l-.62-.62c-.24,3.84,.87,7.38,4.5,9.15s8.37,1.8,12.37,1.71c4.82-.11,9.63-.84,14.27-2.15,3.6-1.01,8.38-2.58,8.57-7.06l-.62,.62c13.85,.55,27.79,1.1,41.6-.37l-.44-1.07c-2.92,3.18-3.81,7.6-2.46,11.74,.49,1.49,1.39,3.38,3.2,3.37,1.09,0,1.76-.8,2.62-1.36,1.06-.7,2.15-1.35,3.26-1.96,4.82-2.67,9.96-4.77,15.18-6.51s10.73-2.59,15.99-4.33,10.25-3.83,14.26-7.41c.6-.54-.29-1.42-.88-.88Z"/></g><g><path class="i" d="M101.08,48.05c-.37,.63-.84,1.24-1.41,1.87-.24,.26-.49,.5-.74,.69-1.61,1.33-3.51,1.54-6.92,1.77-1.3,.09-2.55,.03-3.79-.17-1.64-.26-3.26-.77-4.97-1.48-1.06,.84-3.39,2.02-5.39,2.29-1.98,.27-4.31,.13-6.15-.64-1.58-.65-2.47-1.14-3.48-1.98-1.85,.79-3.84,1.26-5.88,1.43-3.55,.31-7.24-.27-10.58-1.55-.01,0-.02-.01-.03-.01-1.04-.4-2.09-.89-2.85-1.71-1.97-2.12-1.3-5.52-.22-8.21,.87-2.18,2.09-4.45,4.23-5.44,.57-.27,1.19-.43,1.81-.53,.61-.09,1.23-.13,1.85-.13,.37,0,.75,0,1.11,.01,1.01,.03,2.01,.12,3.01,.26,.56,.07,1.11,.16,1.66,.27,3.87,.71,7.64,2.04,11.36,3.39-.08-.68,.76-1.2,1.47-1.19,.75,.02,1.48,.36,2.23,.29,.52-.04,1.23-.23,1.76-.18,.7,.06,1.33,.65,1.43,1.4,4.54-1.43,7.44-2.24,12.27-3.31,1.07-.23,2.61-.32,3.97,.15,.63,.21,1.23,.55,1.73,1.04,1.02,1.03,2.9,3.92,3.32,5.79,.5,2.27,.25,4.11-.8,5.88Z"/><path class="m" d="M100.54,47.73c-1.51,2.45-3.43,3.53-6.24,3.83-3.33,.36-6.45,.2-9.62-.95-.48-.17-1.08-.59-1.6-.49-.41,.07-.95,.62-1.31,.82-1.32,.75-2.79,1.32-4.31,1.49-3.13,.35-6.32-.49-8.79-2.49-.16-.13-.39-.25-.61-.16-4.45,1.83-9.4,1.89-14,.59-2.16-.61-4.85-1.4-5.59-3.79-.58-1.87,0-3.97,.66-5.74,.71-1.87,1.69-3.94,3.43-5.05,1.94-1.24,4.62-1.02,6.82-.81,4.88,.46,9.56,2.13,14.14,3.79,.41,.15,.77-.23,.79-.6,.07-1.07,2.35-.24,3.08-.27,1-.05,2.26-.63,2.59,.76,.08,.32,.45,.54,.77,.44,2.36-.74,4.74-1.46,7.13-2.08s5.38-1.77,7.94-1.29c2.38,.44,3.67,2.66,4.69,4.66,1.2,2.36,1.34,5.01,.02,7.35-.4,.7,.68,1.33,1.08,.63,1.3-2.31,1.48-5.05,.48-7.52-.82-2.02-2.22-4.64-4.22-5.73-2.69-1.46-5.85-.41-8.6,.26-2.98,.73-5.93,1.6-8.85,2.52l.77,.44c-.17-.7-.56-1.31-1.22-1.63-.96-.47-1.94-.01-2.94-.07s-1.86-.48-2.8-.07c-.71,.31-1.11,.86-1.16,1.62l.79-.6c-4.26-1.55-8.59-3.07-13.1-3.67-3.52-.47-7.74-.81-10.32,2.11-2.14,2.42-3.72,6.47-3.39,9.72,.39,3.85,4.06,5.19,7.34,6.02,4.61,1.17,9.58,1.07,14.01-.76l-.61-.16c2.44,1.98,5.49,3.02,8.64,2.92,1.55-.05,3-.37,4.43-.98,.74-.31,1.4-.78,2.12-1.1,.52-.23,.34-.25,.95-.01,.41,.16,.83,.31,1.25,.44,3.32,1.07,6.75,1.09,10.17,.57,2.82-.43,4.77-1.9,6.26-4.32,.42-.69-.66-1.32-1.08-.63Z"/></g><path class="m" d="M83.41,50.12l-.09-.04c.07,.03,.08,.03,0,0-.05-.02-.11-.05-.16-.07-.12-.05-.23-.1-.35-.15-.22-.1-.44-.2-.66-.3-.47-.22-.94-.45-1.41-.69-.29-.15-.69-.09-.86,.22-.15,.29-.09,.7,.22,.86,.97,.5,1.96,.96,2.97,1.38,.14,.06,.36,0,.48-.06,.13-.08,.25-.22,.29-.37,.04-.16,.03-.34-.06-.48s-.21-.22-.37-.29h0Z"/><path class="m" d="M80.42,37.89c-.23,.06-.46,.14-.69,.21-.15,.04-.29,.15-.37,.29-.05,.07-.07,.15-.07,.23-.02,.08-.01,.17,.01,.25,.05,.15,.14,.3,.29,.37s.32,.11,.48,.06c.23-.07,.46-.15,.69-.21,.08-.02,.15-.06,.21-.11,.07-.04,.12-.1,.16-.18,.05-.07,.07-.15,.07-.23,.02-.08,.01-.17-.01-.25-.05-.15-.14-.3-.29-.37s-.32-.11-.48-.06h0Z"/><path class="m" d="M71.05,48.08c-.98,.71-2.03,1.3-3.14,1.78-.3,.13-.39,.59-.22,.86,.2,.31,.53,.37,.86,.22,1.11-.48,2.16-1.07,3.14-1.78,.26-.19,.42-.55,.22-.86-.17-.26-.57-.43-.86-.22h0Z"/><path class="m" d="M74.43,37.78l-.57-.21c-.08-.03-.17-.03-.25-.01-.08,0-.16,.03-.23,.07-.07,.04-.13,.09-.18,.16-.06,.06-.09,.13-.11,.21l-.02,.17c0,.11,.03,.22,.09,.32l.1,.13c.08,.08,.17,.13,.28,.16l.57,.21c.08,.03,.17,.03,.25,.01,.08,0,.16-.03,.23-.07,.07-.04,.13-.09,.18-.16,.06-.06,.09-.13,.11-.21l.02-.17c0-.11-.03-.22-.09-.32l-.1-.13c-.08-.08-.17-.13-.28-.16h0Z"/><path class="m" d="M107.46,134c3.21,.55,6.14,1.98,8.89,3.68,1.35,.83,2.66,1.72,3.96,2.62,1.23,.85,2.54,1.83,2.6,3.45,.03,.8,1.28,.81,1.25,0-.06-1.63-.97-2.83-2.22-3.81-1.35-1.05-2.81-1.98-4.25-2.9-3.05-1.94-6.32-3.64-9.91-4.26-.79-.14-1.12,1.07-.33,1.21h0Z"/><path class="m" d="M85.71,142.11c.74-12.58,4.41-25.21,9.76-36.57,.34-.72-.74-1.36-1.08-.63-5.46,11.57-9.18,24.39-9.94,37.21-.05,.8,1.2,.8,1.25,0h0Z"/><path class="m" d="M108.24,118.69c.63,6.68-.38,13.38-2.95,19.58-.31,.74,.9,1.07,1.21,.33,2.6-6.28,3.63-13.14,2.99-19.91-.08-.79-1.33-.8-1.25,0h0Z"/><g><path class="l" d="M53.98,130.01c-1.34,3.59-2.83,6.13-5.67,9.07-1.44,.96-3.78,1.46-5.88,1.43-4.21-.05-8.59-.77-10.98-4.24-.85-1.22-1.33-2.65-1.75-4.07-1.92-6.49-2.85-13.27-2.74-20.03,.5-.63,1.12-1.01,2.2-1.4,1.65-.61,3.6-1.11,5.48-1.58,.27-3.35,.76-6.68,1.46-9.97,.33,3.52,.96,6.98,2.22,10.27,2.02,5.3,5.58,9.87,9.36,14.11,1.99,2.23,4.07,4.41,6.3,6.41Z"/><path class="m" d="M53.37,129.84c-.63,1.66-1.36,3.28-2.31,4.78s-2.15,3.41-3.66,4.25c-2.96,1.65-7.51,1.22-10.65,.3-1.58-.47-3.08-1.26-4.2-2.49-1.45-1.6-2.03-3.75-2.59-5.78-1.16-4.19-1.91-8.5-2.23-12.84-.09-1.18-.14-2.36-.16-3.53-.01-.54-.07-1.12-.01-1.65,.06-.59,.19-.72,.72-1.04,1.88-1.12,4.41-1.52,6.51-2.05,.28-.07,.44-.33,.46-.6,.28-3.3,.76-6.57,1.44-9.8l-1.23-.17c.6,6.19,2.3,11.93,5.73,17.16s7.75,9.93,12.33,14.08c.6,.54,1.48-.34,.88-.88-4.41-3.98-8.58-8.53-11.9-13.47s-5.2-10.75-5.8-16.88c-.06-.65-1.07-.91-1.23-.17-.7,3.35-1.2,6.73-1.48,10.14l.46-.6c-2.16,.54-4.51,1-6.51,2.01-.54,.28-1.32,.74-1.57,1.33-.15,.35-.06,.81-.06,1.18,0,.79,.01,1.57,.04,2.36,.17,5.01,.9,10,2.16,14.85,1.06,4.06,2.43,7.86,6.57,9.59,3.48,1.45,8.22,1.8,11.8,.54,2.04-.72,3.3-2.39,4.53-4.11,1.35-1.89,2.33-3.99,3.16-6.16,.29-.75-.92-1.08-1.21-.33Z"/></g><path class="m" d="M35.69,126.66c-.78-5.79-.91-11.65-.43-17.47,.07-.8-1.18-.8-1.25,0-.49,5.94-.32,11.9,.47,17.81,.11,.79,1.31,.46,1.21-.33h0Z"/><path class="m" d="M87.06,32.05c0-.47,.34-.96,.75-1.27,.03-.02,.17-.11,.25-.15,.04-.02,.04-.02-.01,0l.07-.03c.07-.02,.15-.05,.23-.06,.23-.03,.53,.04,.76,.14,1.04,.41,1.62,1.34,1.96,2.29,.11,.32,.43,.53,.77,.44,.31-.08,.55-.45,.44-.77-.25-.7-.56-1.35-1.04-1.91-.52-.61-1.26-1.12-2.04-1.33-.85-.23-1.63-.03-2.3,.52-.63,.52-1.09,1.3-1.09,2.13s1.25,.81,1.25,0h0Z"/><path class="h" d="M63.42,120.91c-2.14-1.59-3.99-3.63-5.46-5.87-2.71-4.12-4.65-9.04-5.95-13.78-4.59-16.69-5.79-34.67-.24-50.98,3.34,1.28,7.03,1.86,10.58,1.55-.72,2.27-1.33,4.57-1.84,6.9-.85,3.74-1.44,7.54-1.82,11.35-.38,3.7-.56,7.42-.57,11.14-.02,11.32,1.53,22.6,3.73,33.71,.4,2.02,.84,4.07,1.57,5.98Z"/><path class="h" d="M98.35,77.58c-1.02,7.85-3.45,18.51-8.04,26.55-2.47,4.32-4.97,7.77-7.54,11.3-1.19,1.63-2.55,3.17-4.06,4.49,.22-.6,.43-1.19,.64-1.79,3.89-11.05,7.48-22.26,9.34-33.82,.7-4.34,1.15-8.75,1.26-13.15,.12-4-.04-8-.53-11.95-.28-2.35-.68-4.69-1.2-7,1.24,.2,2.49,.26,3.79,.17,3.41-.23,5.31-.44,6.92-1.77,.38,2.51,.59,5.08,.67,7.66,.19,6.45-.43,13.03-1.25,19.31Z"/><path class="m" d="M165.59,143.83c.93-.97,1.91-1.88,2.86-2.83,.34-.34,.17-.9-.28-1.04-3.6-1.14-6.8-3.21-8.39-6.76-.56-1.26-1.55-4.92,.59-4.93,1.6-.01,3.2,.13,4.79,.24,4.38,.31,8.83,1.25,13.22,.75,3.94-.45,7.72-1.72,11.4-3.16,.74-.29,.42-1.5-.33-1.21-3.71,1.45-7.59,2.8-11.58,3.17-2.45,.23-4.86-.02-7.29-.32-2.91-.37-5.86-.57-8.79-.69-1.2-.05-3.27-.38-3.81,1.07s-.05,3.77,.49,5.15c1.6,4.14,5.3,6.61,9.38,7.9l-.28-1.04c-.95,.95-1.93,1.86-2.86,2.83-.56,.58,.33,1.47,.88,.88h0Z"/><g><path class="g" d="M62.73,31.41c.01,1.04-.15,2.28-.39,3.38-.55-.11-1.1-.2-1.66-.27,.12-.67,.2-1.48,.2-2.14s-.12-1.45-.48-1.84c-.16-.17-.42-.37-.62-.39-.74-.09-1.47,.84-1.79,1.76-.24,.72-.29,1.54-.32,2.35-.36-.01-.74-.01-1.11-.01-.62,0-1.24,.04-1.85,.13,.07-1.26,.22-2.52,.72-3.65,.02-.06,.04-.12,.07-.18l.06-.12,.09-.18c.4-.8,1-1.51,1.74-2.02,.08-.06,.17-.12,.27-.18,.71-.48,1.5-.76,2.3-.69,.15,0,.32,.06,.48,.12,.42,.09,.79,.28,1.08,.59,.92,.71,1.2,2.18,1.21,3.34Z"/><path class="m" d="M62.1,31.41c0,1.08-.14,2.16-.37,3.21l.77-.44c-.61-.12-1.21-.21-1.83-.29l.6,.79c.17-.99,.3-2.02,.17-3.02-.11-.89-.53-1.91-1.51-2.12s-1.81,.68-2.23,1.46c-.55,1-.62,2.14-.67,3.26l.62-.62c-1.05-.03-2.09,0-3.13,.14l.79,.6c.07-1.24,.23-2.49,.76-3.63,.48-1.03,1.25-1.83,2.24-2.38s2.16-.51,2.98,.36c.65,.69,.78,1.78,.79,2.69,.01,.8,1.26,.81,1.25,0-.02-.98-.17-2.01-.65-2.88-.52-.95-1.48-1.6-2.54-1.77-2.23-.35-4.36,1.64-5.22,3.52-.59,1.29-.77,2.69-.86,4.1-.03,.45,.42,.66,.79,.6,.92-.13,1.86-.12,2.79-.1,.35,0,.61-.29,.62-.62,.03-.78,.05-1.62,.36-2.35,.13-.3,.59-1.24,1.05-1.14,.48,.1,.53,1.02,.55,1.38,.03,.73-.05,1.48-.17,2.21-.08,.44,.17,.74,.6,.79,.5,.06,1,.15,1.49,.25,.32,.06,.69-.09,.77-.44,.25-1.16,.42-2.36,.41-3.55,0-.8-1.25-.81-1.25,0Z"/></g><path class="m" d="M60.88,32.38c0,.66-.08,1.47-.2,2.14-1-.14-2-.23-3.01-.26,.03-.81,.08-1.63,.32-2.35,.32-.92,1.05-1.85,1.79-1.76,.2,.02,.46,.22,.62,.39,.36,.39,.48,1.2,.48,1.84Z"/><g><path class="e" d="M289.42,70.92c-2.02,15.51-6.82,36.58-15.89,52.47-4.88,8.54-9.82,15.36-14.9,22.33-2.35,3.22-5.04,6.27-8.02,8.87,.43-1.19,.85-2.35,1.26-3.54,7.69-21.84,14.78-43.99,18.46-66.84,1.38-8.58,2.27-17.29,2.49-25.99-12.95,8.68-24.9,18.87-35.5,30.32-7.59-11.92-16.44-22.85-26.29-32.45-.75,7.31-1.11,14.66-1.13,22.02-.04,22.37,3.02,44.67,7.37,66.62,.79,3.99,1.66,8.04,3.1,11.82-4.23-3.14-7.89-7.17-10.79-11.6-5.36-8.14-9.19-17.87-11.76-27.23-9.07-32.99-11.44-68.52-.47-100.75,6.6,2.53,13.89,3.68,20.91,3.06-1.42,4.49-2.63,9.03-3.64,13.64,9.23,8.14,17.63,17.21,25.04,27.06,9.15-10.4,20.04-19.27,32.1-26.11-.55-4.64-1.34-9.27-2.37-13.83,2.45,.4,4.92,.51,7.49,.34,6.74-.45,10.49-.87,13.68-3.5,.75,4.96,1.17,10.04,1.32,15.14,.38,12.75-.85,25.75-2.47,38.16Z"/><path class="m" d="M288.79,70.92c-1.49,11.36-3.94,22.65-7.62,33.51-1.92,5.68-4.2,11.25-7.03,16.55-3.03,5.68-6.59,11.1-10.28,16.37-4.15,5.93-8.25,11.99-13.71,16.81l1.04,.61c8.79-24.06,16.69-48.85,20.32-74.27,1.05-7.38,1.72-14.81,1.92-22.26,.01-.46-.55-.8-.94-.54-13,8.73-24.97,18.94-35.62,30.42l.98,.13c-7.54-11.81-16.37-22.78-26.38-32.58-.42-.41-1.01-.08-1.07,.44-2.68,26.45-.2,53.09,4.45,79.17,1.28,7.17,2.35,14.61,4.92,21.46l.92-.71c-7.55-5.68-12.66-13.77-16.5-22.27s-6.45-18-8.54-27.32c-4.21-18.83-6.09-38.29-4.34-57.55,.99-10.8,3.16-21.47,6.64-31.75l-.77,.44c6.71,2.54,13.92,3.67,21.08,3.09l-.6-.79c-1.42,4.49-2.62,9.04-3.64,13.64-.05,.21,0,.46,.16,.61,9.19,8.12,17.55,17.14,24.94,26.93,.22,.3,.69,.46,.98,.13,9.15-10.36,19.95-19.17,31.97-26.01,.17-.1,.33-.33,.31-.54-.57-4.7-1.36-9.37-2.39-14l-.77,.77c4.51,.69,9.1,.43,13.6-.18,2.99-.41,5.79-1.22,8.17-3.14l-1.04-.28c2.63,17.61,1.12,35.57-1.17,53.14-.1,.8,1.15,.79,1.25,0,2.3-17.69,3.77-35.73,1.12-53.47-.08-.52-.73-.53-1.04-.28-2.29,1.85-5.12,2.51-7.98,2.86-4.17,.51-8.41,.78-12.58,.14-.47-.07-.88,.27-.77,.77,1.01,4.52,1.79,9.07,2.35,13.67l.31-.54c-12.1,6.89-23,15.77-32.22,26.21l.98,.13c-7.46-9.88-15.87-18.98-25.14-27.18l.16,.61c1.01-4.6,2.22-9.15,3.64-13.64,.12-.36-.2-.82-.6-.79-7.06,.58-14.13-.54-20.74-3.04-.33-.12-.67,.14-.77,.44-6.3,18.62-8.23,38.46-6.97,58.02,.63,9.83,2.05,19.6,4.08,29.24s4.47,19.1,8.29,28.11c4.04,9.54,9.53,18.62,17.92,24.93,.43,.32,1.1-.21,.92-.71-2.26-6.03-3.28-12.49-4.44-18.8s-2.27-13.05-3.16-19.61c-1.78-13.05-2.85-26.21-2.85-39.38,0-7.52,.37-15.03,1.13-22.51l-1.07,.44c9.94,9.73,18.7,20.6,26.19,32.33,.21,.33,.7,.43,.98,.13,10.58-11.4,22.46-21.55,35.37-30.22l-.94-.54c-.69,25.95-7.17,51.32-15.2,75.88-2.23,6.81-4.53,13.6-6.99,20.32-.23,.63,.62,.99,1.04,.61,4.91-4.33,8.64-9.63,12.41-14.93,3.85-5.41,7.55-10.95,10.81-16.74,5.97-10.57,9.77-22.34,12.49-34.13,1.4-6.05,2.48-12.16,3.29-18.31,.1-.8-1.15-.79-1.25,0Z"/></g></g><g id="b"/><g id="c"><text class="f" transform="translate(321.95 119.44)"><tspan class="d" x="0" y="0">F</tspan><tspan class="j" x="57.59" y="0">roid</tspan></text><text class="f" transform="translate(606.92 119.17)"><tspan class="d" x="0" y="0">C</tspan><tspan class="k" x="62.26" y="0">lim</tspan></text></g></svg>