<?xml version="1.0" encoding="utf-8"?>
<!-- Generator: Adobe Illustrator 26.1.0, SVG Export Plug-In . SVG Version: 6.00 Build 0)  -->
<svg version="1.1" id="Calque_1" xmlns="http://www.w3.org/2000/svg" xmlns:xlink="http://www.w3.org/1999/xlink" x="0px" y="0px"
	 viewBox="0 0 407.1 176.1" style="enable-background:new 0 0 407.1 176.1;" xml:space="preserve">
<style type="text/css">
	.st0{fill:#D2D2D2;}
	.st1{fill:#1D1D1B;}
	.st2{fill:#BBBABA;}
	.st3{fill:#C2E5F7;stroke:#1D1D1B;stroke-miterlimit:10;}
	.st4{fill:#FFFFFF;}
	.st5{enable-background:new    ;}
	.st6{fill:#C2E5F7;}
	.st7{fill:none;stroke:#1D1D1B;stroke-miterlimit:10;}
</style>
<g id="a">
	<g>
		<path class="st0" d="M216.3,136c-4.4,4-12.5,7.3-21.4,9.3c-0.9,0.2-1.8,0.4-2.8,0.5c-8.4,2.3-18.4,6.2-24.9,10.7
			c-0.5,0.4-0.8,0.8-1.4,0.9c-0.4,0.1-1.1,0-1.4-0.3c-2.1-2-2.4-6.6-1.8-9.3c0.4-1.9,1.4-3.2,2.6-4.5c-12.8,1.4-25.9,0.9-38.7,0.5
			c-1,0-1.9-0.1-2.9-0.1c0,1.1-0.5,2.2-1.3,3.1c-1,1.1-2.3,1.9-3.7,2.4c-7,2.4-14.4,3.5-21.7,3c-2.3-0.1-5.5-0.5-7.6-1.5
			c-2.1-1-3.2-2.2-3.9-4.5c-0.4-1.3-0.4-2.7-0.3-4.1c-8.5-0.8-16.8-2.5-24-6.8c-2.5-1.5-4.9-3.3-7.1-5.3c-2.2-2-4.3-4.2-6.3-6.4
			c-3.8-4.2-7.3-8.8-9.4-14.1c-1.3-3.3-1.9-6.8-2.2-10.3c-0.2-2.4-0.3-4.8-0.4-7.1C35.3,71.5,37.6,50,48.7,32.7
			C52,27.5,56.3,22.6,62,20c9.3-4.2,20.8-1,28.1,6.1c2.8,2.7,5,5.8,6.7,9.2c-1.4-0.5-2.9-0.4-4-0.2c-4.8,1.1-7.7,1.9-12.3,3.3
			c-0.1-0.8-0.7-1.3-1.4-1.4c-0.5,0-1.2,0.1-1.8,0.2c-0.8,0.1-1.5-0.3-2.2-0.3c-0.7,0-1.6,0.5-1.5,1.2c-3.7-1.3-7.5-2.7-11.4-3.4
			c0.2-1.1,0.4-2.3,0.4-3.4c0-1.2-0.3-2.6-1.2-3.3c-0.3-0.3-0.7-0.5-1.1-0.6c-0.2-0.1-0.3-0.1-0.5-0.1c-0.8-0.1-1.6,0.2-2.3,0.7
			c-0.1,0.1-0.2,0.1-0.3,0.2c-0.7,0.5-1.3,1.2-1.7,2l-0.1,0.2l-0.1,0.1c0,0.1,0,0.1-0.1,0.2c-0.5,1.1-0.7,2.4-0.7,3.6
			c-0.6,0.1-1.2,0.3-1.8,0.5c-2.1,1-3.4,3.3-4.2,5.4c-1.1,2.7-1.8,6.1,0.2,8.2c0.8,0.8,1.8,1.3,2.8,1.7c0,0,0,0,0,0
			c-5.5,16.3-4.3,34.3,0.2,51c1.3,4.7,3.2,9.7,6,13.8c1.5,2.2,3.3,4.3,5.5,5.9c-0.7-1.9-1.2-4-1.6-6c-2.2-11.1-3.8-22.4-3.7-33.7
			c0-3.7,0.2-7.4,0.6-11.1c5,4.9,9.5,10.4,13.3,16.4c5.4-5.8,11.4-10.9,18-15.3c-0.1,4.4-0.6,8.8-1.3,13.2
			c-1.9,11.6-5.4,22.8-9.3,33.8c-0.2,0.6-0.4,1.2-0.6,1.8c1.5-1.3,2.9-2.9,4.1-4.5c2.6-3.5,5.1-7,7.5-11.3c4.6-8,7-18.7,8-26.6
			c0.8-6.3,1.4-12.9,1.2-19.3c-0.1-2.6-0.3-5.2-0.7-7.7c0.2-0.2,0.5-0.4,0.7-0.7c0.6-0.6,1-1.2,1.4-1.9c0.4,1.9,0.6,3.8,0.8,5.7
			c0.2,2.4,0.3,4.8,0.2,7.2c3.7,3.2,8.6,5.1,13.5,5.9c6.6,1.1,13.3,0.5,20,0.3c26.2-0.5,50,3.1,65.8,11c12.8,6.3,17.8,13.7,20.3,18
			c2.4,4.1,4.4,9.1,4.6,14.2C227,126.7,220.3,132.4,216.3,136L216.3,136z"/>
		<path class="st1" d="M215.9,135.6c-3.2,2.9-7.3,4.7-11.2,6.2c-2.4,0.9-4.8,1.6-7.2,2.3s-4.7,1-7.1,1.6c-4.6,1.3-9,2.9-13.4,4.8
			c-2.2,1-4.4,2-6.5,3.2c-0.9,0.5-1.8,1-2.6,1.6s-2.1,1.9-3.1,1.3c-1.7-1-1.9-4.5-1.9-6.2c0.1-2.6,0.9-4.7,2.7-6.6
			c0.3-0.4,0.1-1.1-0.4-1.1c-13.8,1.5-27.8,0.9-41.6,0.4c-0.3,0-0.6,0.3-0.6,0.6c-0.2,4.4-6.1,5.5-9.5,6.3c-4,1-8,1.5-12.1,1.6
			c-3.6,0.1-7.5,0.1-10.9-1.2c-3.8-1.4-5-4.6-4.7-8.4c0-0.4-0.3-0.6-0.6-0.6c-6.7-0.6-13.4-1.8-19.5-4.5
			c-6.3-2.8-11.5-7.3-16.2-12.4s-8.8-10.2-10.9-16.5s-2.2-13.7-2.2-20.6c0-12.8,1.2-25.7,5.2-37.9c2-6,4.7-11.9,8.2-17.2
			s7.7-9.9,13.5-12.1s12.8-1.6,18.6,1c6.4,3,11.3,8.2,14.5,14.4l0.7-0.9c-2.8-0.8-5.6,0.1-8.3,0.8s-5.5,1.5-8.3,2.4l0.8,0.4
			C81,37.6,80.6,37,80,36.7c-1-0.5-1.9,0-2.9-0.1s-1.9-0.5-2.8-0.1c-0.7,0.3-1.1,0.9-1.2,1.6l0.8-0.6c-3.7-1.3-7.5-2.7-11.4-3.4
			l0.4,0.8c0.6-2.8,1-7.8-3-8.2c-1.8-0.2-3.5,1.2-4.5,2.5c-1,1.5-1.3,3.3-1.4,5.1l0.5-0.6c-4.1,0.7-6.1,4.6-7.1,8.3
			c-0.5,1.8-0.7,3.7,0.1,5.5s2.4,2.7,4.1,3.3l-0.4-0.8C47.9,59.7,47,69.9,47.6,80c0.3,5,1.1,9.9,2.1,14.7s2.2,9.5,4.2,14
			c2.1,4.9,4.9,9.5,9.2,12.8c0.4,0.3,1.1-0.2,0.9-0.7c-1.4-3.9-2-8.1-2.7-12.2s-1.3-8.5-1.8-12.8c-0.9-8.5-1-17.1-0.2-25.7l-1.1,0.4
			c5,4.9,9.4,10.4,13.2,16.3c0.2,0.3,0.7,0.4,1,0.1c5.3-5.8,11.3-10.9,17.8-15.2l-0.9-0.5c-0.5,16.7-5.5,33-11.2,48.6
			c-0.2,0.6,0.6,1,1,0.6c3.5-3.2,6.2-7.3,8.8-11.2s4.9-8.1,6.5-12.6c3.3-8.9,4.7-18.4,5.4-27.8c0.5-6.1,0.5-12.2-0.4-18.3L99.3,51
			c0.9-0.7,1.6-1.7,2.2-2.7l-1.1-0.2c0.8,4.1,0.9,8.1,1,12.2c0,1.3,1.3,1.9,2.2,2.5c1.4,1,2.9,1.8,4.5,2.4
			c6.8,2.9,14.2,2.9,21.5,2.6c14.6-0.5,29.1-0.1,43.5,2.3c11.9,2,24.1,5.4,34.3,12.1c8.8,5.8,16.1,14.9,17.8,25.5
			c1,6.3,0.3,13.6-2.6,19.3C221.1,130.5,218.6,133.1,215.9,135.6c-0.6,0.5,0.3,1.4,0.9,0.9c2.4-2.2,4.7-4.5,6.4-7.3
			c2.6-4.3,3.6-9.4,3.8-14.4c0.1-3.5-0.1-6.9-1-10.2s-2.3-6.2-4-9c-2.1-3.5-4.6-6.6-7.6-9.4c-8.9-8.1-20.6-12.5-32.2-15.2
			c-13.7-3.2-27.8-4.3-41.8-4.3c-8.8,0-18,1.3-26.6-0.7c-2-0.4-3.9-1.1-5.8-1.9c-0.9-0.4-1.7-0.9-2.6-1.4c-0.7-0.4-2.2-1.1-2.5-1.8
			c-0.4-0.8-0.1-2.3-0.2-3.2c0-1.1-0.1-2.2-0.2-3.4c-0.2-2.1-0.4-4.2-0.8-6.3c-0.1-0.5-0.9-0.6-1.1-0.2c-0.3,0.6-0.7,1.1-1.2,1.6
			c-0.2,0.3-0.8,0.6-0.9,0.9c-0.2,0.3-0.1,0.6,0,1c0.1,0.8,0.2,1.6,0.3,2.5c0.3,2.8,0.4,5.6,0.3,8.5c-0.1,5.6-0.6,11.1-1.4,16.6
			c-1.4,9.4-3.9,18.7-8.9,26.9c-1.5,2.4-3.1,4.8-4.7,7.1s-3.5,4.8-5.7,6.8l1,0.6C85,104.4,90.1,88,90.5,71.2c0-0.5-0.6-0.8-0.9-0.5
			c-6.6,4.4-12.7,9.6-18.1,15.4l1,0.1c-3.8-6-8.3-11.6-13.4-16.5c-0.4-0.4-1-0.1-1.1,0.4c-0.9,8.7-0.7,17.5,0.2,26.1
			c0.5,4.2,1.1,8.5,1.8,12.7s1.3,8.3,2.7,12.2l0.9-0.7c-7.7-5.8-10.6-16.1-12.6-25.1c-2.1-9.4-3-19.2-2.2-28.8
			c0.5-5.5,1.6-10.9,3.4-16.1c0.1-0.3-0.1-0.7-0.4-0.8c-1.7-0.5-3.1-1.6-3.5-3.4c-0.3-1.5,0-3.1,0.5-4.5c1-3.1,2.6-6.1,6-6.8
			c0.3,0,0.4-0.3,0.5-0.6c0.1-1.3,0.2-2.6,0.8-3.7c0.6-1.2,2-2.6,3.4-2.7c3.3-0.1,2.6,4.7,2.2,6.6c-0.1,0.3,0.1,0.7,0.4,0.8
			c3.9,0.7,7.6,2,11.4,3.4c0.4,0.2,0.8-0.2,0.8-0.6c0.1-1.1,2.3-0.2,3.1-0.3c1,0,2.3-0.6,2.6,0.8c0.1,0.3,0.4,0.5,0.8,0.4
			c2.5-0.8,5-1.5,7.5-2.2c2.7-0.7,5.7-1.8,8.4-1c0.6,0.2,0.9-0.5,0.7-0.9c-2.9-5.6-7.2-10.6-12.8-13.8c-5-2.8-11-4.3-16.8-3.5
			C55,19.5,47.2,32,42.6,42.9c-5.2,12.4-7.1,26-7.5,39.4c-0.2,7-0.3,14.2,0.9,21.2s4.6,12.7,9,18c5.1,6.1,10.9,12,18,15.6
			s14.5,4.9,22.1,5.6l-0.6-0.6c-0.2,3.8,0.9,7.4,4.5,9.1c3.7,1.8,8.4,1.8,12.4,1.7c4.8-0.1,9.6-0.8,14.3-2.1c3.6-1,8.4-2.6,8.6-7.1
			l-0.6,0.6c13.9,0.6,27.8,1.1,41.6-0.4l-0.4-1.1c-2.9,3.2-3.8,7.6-2.5,11.7c0.5,1.5,1.4,3.4,3.2,3.4c1.1,0,1.8-0.8,2.6-1.4
			c1.1-0.7,2.1-1.4,3.3-2c4.8-2.7,10-4.8,15.2-6.5c5.3-1.8,10.7-2.6,16-4.3s10.2-3.8,14.3-7.4C217.4,136,216.5,135.1,215.9,135.6
			L215.9,135.6z"/>
	</g>
	<path class="st1" d="M100.2,84.3c1.2-7.7,2.4-15.5,2.5-23.4c0-0.8-1.2-0.8-1.2,0c-0.1,7.7-1.3,15.4-2.4,23
		C98.9,84.7,100.1,85.1,100.2,84.3L100.2,84.3L100.2,84.3z"/>
	<g>
		<path class="st0" d="M89.4,59.2c-6.1,3.5-11.6,8-16.2,13.2c-3.8-5-8-9.6-12.7-13.7c0.5-2.3,1.1-4.6,1.8-6.9c2-0.2,4-0.6,5.9-1.4
			c1,0.8,1.9,1.3,3.5,2c1.8,0.8,4.2,0.9,6.2,0.6c2-0.3,4.3-1.5,5.4-2.3c1.7,0.7,3.3,1.2,5,1.5C88.7,54.5,89.1,56.9,89.4,59.2z"/>
		<path class="st1" d="M89.1,58.7c-6.2,3.5-11.7,8-16.4,13.3l1,0.1c-3.8-5-8.1-9.6-12.8-13.8l0.2,0.6c0.5-2.3,1.1-4.6,1.8-6.9
			l-0.6,0.5c2.1-0.2,4.1-0.7,6-1.5l-0.6-0.2c2.8,2.3,6.4,3.3,10.1,2.8c1.7-0.2,3.3-0.9,4.7-1.7c0.3-0.2,0.6-0.4,0.9-0.4
			s0.9,0.3,1.3,0.5c1.1,0.4,2.2,0.7,3.3,0.8l-0.4-0.4c0.5,2.3,0.9,4.5,1.2,6.8c0.1,0.8,1.3,0.8,1.2,0c-0.3-2.4-0.7-4.8-1.2-7.2
			c0-0.2-0.2-0.4-0.4-0.4c-1-0.2-1.9-0.4-2.9-0.7c-0.7-0.2-1.6-0.8-2.3-0.8c-0.5,0-1.1,0.6-1.5,0.8c-0.8,0.5-1.7,0.8-2.5,1.1
			c-3.6,1.1-7.7,0.2-10.6-2.1c-0.2-0.1-0.4-0.2-0.6-0.2c-1.8,0.8-3.7,1.2-5.7,1.4c-0.3,0-0.5,0.2-0.6,0.5c-0.7,2.3-1.3,4.6-1.8,6.9
			c0,0.2,0,0.5,0.2,0.6c4.6,4.1,8.8,8.6,12.6,13.6c0.2,0.3,0.7,0.5,1,0.1c4.6-5.2,10.1-9.7,16.1-13.1C90.4,59.4,89.8,58.3,89.1,58.7
			z"/>
	</g>
	<g>
		<path class="st2" d="M101.1,48.1c-0.4,0.6-0.8,1.2-1.4,1.9c-0.2,0.3-0.5,0.5-0.7,0.7c-1.6,1.3-3.5,1.5-6.9,1.8
			c-1.3,0.1-2.6,0-3.8-0.2c-1.6-0.3-3.3-0.8-5-1.5c-1.1,0.8-3.4,2-5.4,2.3c-2,0.3-4.3,0.1-6.2-0.6c-1.6-0.7-2.5-1.1-3.5-2
			c-1.8,0.8-3.8,1.3-5.9,1.4c-3.5,0.3-7.2-0.3-10.6-1.5c0,0,0,0,0,0c-1-0.4-2.1-0.9-2.8-1.7c-2-2.1-1.3-5.5-0.2-8.2
			c0.9-2.2,2.1-4.5,4.2-5.4c0.6-0.3,1.2-0.4,1.8-0.5c0.6-0.1,1.2-0.1,1.8-0.1c0.4,0,0.8,0,1.1,0c1,0,2,0.1,3,0.3
			c0.6,0.1,1.1,0.2,1.7,0.3c3.9,0.7,7.6,2,11.4,3.4c-0.1-0.7,0.8-1.2,1.5-1.2c0.8,0,1.5,0.4,2.2,0.3c0.5,0,1.2-0.2,1.8-0.2
			c0.7,0.1,1.3,0.7,1.4,1.4c4.5-1.4,7.4-2.2,12.3-3.3c1.1-0.2,2.6-0.3,4,0.2c0.6,0.2,1.2,0.5,1.7,1c1,1,2.9,3.9,3.3,5.8
			C102.4,44.4,102.1,46.3,101.1,48.1L101.1,48.1z"/>
		<path class="st1" d="M100.5,47.7c-1.5,2.5-3.4,3.5-6.2,3.8c-3.3,0.4-6.4,0.2-9.6-1c-0.5-0.2-1.1-0.6-1.6-0.5
			c-0.4,0.1-0.9,0.6-1.3,0.8c-1.3,0.8-2.8,1.3-4.3,1.5c-3.1,0.3-6.3-0.5-8.8-2.5c-0.2-0.1-0.4-0.2-0.6-0.2c-4.5,1.8-9.4,1.9-14,0.6
			c-2.2-0.6-4.8-1.4-5.6-3.8c-0.6-1.9,0-4,0.7-5.7c0.7-1.9,1.7-3.9,3.4-5c1.9-1.2,4.6-1,6.8-0.8c4.9,0.5,9.6,2.1,14.1,3.8
			c0.4,0.2,0.8-0.2,0.8-0.6c0.1-1.1,2.3-0.2,3.1-0.3c1,0,2.3-0.6,2.6,0.8c0.1,0.3,0.4,0.5,0.8,0.4c2.4-0.7,4.7-1.5,7.1-2.1
			s5.4-1.8,7.9-1.3c2.4,0.4,3.7,2.7,4.7,4.7C101.7,42.8,101.8,45.4,100.5,47.7c-0.4,0.7,0.7,1.3,1.1,0.6c1.3-2.3,1.5-5,0.5-7.5
			c-0.8-2-2.2-4.6-4.2-5.7c-2.7-1.5-5.8-0.4-8.6,0.3c-3,0.7-5.9,1.6-8.8,2.5l0.8,0.4C81,37.6,80.6,37,80,36.7c-1-0.5-1.9,0-2.9-0.1
			s-1.9-0.5-2.8-0.1c-0.7,0.3-1.1,0.9-1.2,1.6l0.8-0.6c-4.3-1.5-8.6-3.1-13.1-3.7c-3.5-0.5-7.7-0.8-10.3,2.1
			c-2.1,2.4-3.7,6.5-3.4,9.7c0.4,3.8,4.1,5.2,7.3,6c4.6,1.2,9.6,1.1,14-0.8l-0.6-0.2c2.4,2,5.5,3,8.6,2.9c1.6,0,3-0.4,4.4-1
			c0.7-0.3,1.4-0.8,2.1-1.1c0.5-0.2,0.3-0.2,0.9,0c0.4,0.2,0.8,0.3,1.2,0.4c3.3,1.1,6.8,1.1,10.2,0.6c2.8-0.4,4.8-1.9,6.3-4.3
			C102,47.7,100.9,47.1,100.5,47.7L100.5,47.7z"/>
	</g>
	<path class="st1" d="M83.4,50.1L83.4,50.1C83.4,50.1,83.4,50.1,83.4,50.1c-0.1-0.1-0.2-0.1-0.2-0.1c-0.1,0-0.2-0.1-0.3-0.2
		c-0.2-0.1-0.4-0.2-0.7-0.3c-0.5-0.2-0.9-0.5-1.4-0.7c-0.3-0.2-0.7-0.1-0.9,0.2c-0.2,0.3-0.1,0.7,0.2,0.9c1,0.5,2,1,3,1.4
		c0.1,0.1,0.4,0,0.5-0.1c0.1-0.1,0.2-0.2,0.3-0.4c0-0.2,0-0.3-0.1-0.5S83.6,50.2,83.4,50.1L83.4,50.1L83.4,50.1z"/>
	<path class="st1" d="M80.4,37.9C80.2,38,80,38,79.7,38.1c-0.2,0-0.3,0.2-0.4,0.3c-0.1,0.1-0.1,0.2-0.1,0.2c0,0.1,0,0.2,0,0.2
		c0.1,0.2,0.1,0.3,0.3,0.4s0.3,0.1,0.5,0.1c0.2-0.1,0.5-0.2,0.7-0.2c0.1,0,0.2-0.1,0.2-0.1c0.1,0,0.1-0.1,0.2-0.2
		c0.1-0.1,0.1-0.2,0.1-0.2c0-0.1,0-0.2,0-0.2c-0.1-0.2-0.1-0.3-0.3-0.4S80.6,37.8,80.4,37.9L80.4,37.9z"/>
	<path class="st1" d="M71.1,48.1c-1,0.7-2,1.3-3.1,1.8c-0.3,0.1-0.4,0.6-0.2,0.9c0.2,0.3,0.5,0.4,0.9,0.2c1.1-0.5,2.2-1.1,3.1-1.8
		c0.3-0.2,0.4-0.5,0.2-0.9C71.7,48,71.3,47.9,71.1,48.1L71.1,48.1z"/>
	<path class="st1" d="M74.4,37.8l-0.6-0.2c-0.1,0-0.2,0-0.2,0c-0.1,0-0.2,0-0.2,0.1s-0.1,0.1-0.2,0.2c-0.1,0.1-0.1,0.1-0.1,0.2
		l0,0.2c0,0.1,0,0.2,0.1,0.3l0.1,0.1c0.1,0.1,0.2,0.1,0.3,0.2l0.6,0.2c0.1,0,0.2,0,0.2,0c0.1,0,0.2,0,0.2-0.1s0.1-0.1,0.2-0.2
		c0.1-0.1,0.1-0.1,0.1-0.2l0-0.2c0-0.1,0-0.2-0.1-0.3l-0.1-0.1C74.6,37.9,74.5,37.8,74.4,37.8L74.4,37.8z"/>
	<path class="st1" d="M107.5,134c3.2,0.6,6.1,2,8.9,3.7c1.3,0.8,2.7,1.7,4,2.6c1.2,0.9,2.5,1.8,2.6,3.4c0,0.8,1.3,0.8,1.2,0
		c-0.1-1.6-1-2.8-2.2-3.8c-1.3-1.1-2.8-2-4.2-2.9c-3.1-1.9-6.3-3.6-9.9-4.3C107,132.6,106.7,133.9,107.5,134L107.5,134L107.5,134z"
		/>
	<path class="st1" d="M85.7,142.1c0.7-12.6,4.4-25.2,9.8-36.6c0.3-0.7-0.7-1.4-1.1-0.6c-5.5,11.6-9.2,24.4-9.9,37.2
		C84.4,142.9,85.6,142.9,85.7,142.1L85.7,142.1L85.7,142.1z"/>
	<path class="st1" d="M108.2,118.7c0.6,6.7-0.4,13.4-2.9,19.6c-0.3,0.7,0.9,1.1,1.2,0.3c2.6-6.3,3.6-13.1,3-19.9
		C109.4,117.9,108.2,117.9,108.2,118.7L108.2,118.7z"/>
	<g>
		<path class="st0" d="M54,130c-1.3,3.6-2.8,6.1-5.7,9.1c-1.4,1-3.8,1.5-5.9,1.4c-4.2-0.1-8.6-0.8-11-4.2c-0.9-1.2-1.3-2.6-1.8-4.1
			c-1.9-6.5-2.9-13.3-2.7-20c0.5-0.6,1.1-1,2.2-1.4c1.6-0.6,3.6-1.1,5.5-1.6c0.3-3.3,0.8-6.7,1.5-10c0.3,3.5,1,7,2.2,10.3
			c2,5.3,5.6,9.9,9.4,14.1C49.7,125.8,51.8,128,54,130L54,130z"/>
		<path class="st1" d="M53.4,129.8c-0.6,1.7-1.4,3.3-2.3,4.8s-2.2,3.4-3.7,4.2c-3,1.6-7.5,1.2-10.6,0.3c-1.6-0.5-3.1-1.3-4.2-2.5
			c-1.5-1.6-2-3.8-2.6-5.8c-1.2-4.2-1.9-8.5-2.2-12.8c-0.1-1.2-0.1-2.4-0.2-3.5c0-0.5-0.1-1.1,0-1.7c0.1-0.6,0.2-0.7,0.7-1
			c1.9-1.1,4.4-1.5,6.5-2.1c0.3-0.1,0.4-0.3,0.5-0.6c0.3-3.3,0.8-6.6,1.4-9.8l-1.2-0.2c0.6,6.2,2.3,11.9,5.7,17.2
			c3.4,5.2,7.8,9.9,12.3,14.1c0.6,0.5,1.5-0.3,0.9-0.9c-4.4-4-8.6-8.5-11.9-13.5s-5.2-10.8-5.8-16.9c-0.1-0.7-1.1-0.9-1.2-0.2
			c-0.7,3.3-1.2,6.7-1.5,10.1l0.5-0.6c-2.2,0.5-4.5,1-6.5,2c-0.5,0.3-1.3,0.7-1.6,1.3c-0.1,0.3-0.1,0.8-0.1,1.2c0,0.8,0,1.6,0,2.4
			c0.2,5,0.9,10,2.2,14.9c1.1,4.1,2.4,7.9,6.6,9.6c3.5,1.4,8.2,1.8,11.8,0.5c2-0.7,3.3-2.4,4.5-4.1c1.3-1.9,2.3-4,3.2-6.2
			C54.9,129.4,53.7,129.1,53.4,129.8L53.4,129.8z"/>
	</g>
	<path class="st1" d="M35.7,126.7c-0.8-5.8-0.9-11.7-0.4-17.5c0.1-0.8-1.2-0.8-1.2,0c-0.5,5.9-0.3,11.9,0.5,17.8
		C34.6,127.8,35.8,127.5,35.7,126.7L35.7,126.7L35.7,126.7z"/>
	<path class="st1" d="M87.1,32.1c0-0.5,0.3-1,0.8-1.3c0,0,0.2-0.1,0.2-0.1c0,0,0,0,0,0l0.1,0c0.1,0,0.2,0,0.2-0.1
		c0.2,0,0.5,0,0.8,0.1c1,0.4,1.6,1.3,2,2.3c0.1,0.3,0.4,0.5,0.8,0.4c0.3-0.1,0.6-0.5,0.4-0.8c-0.2-0.7-0.6-1.4-1-1.9
		c-0.5-0.6-1.3-1.1-2-1.3c-0.8-0.2-1.6,0-2.3,0.5c-0.6,0.5-1.1,1.3-1.1,2.1C85.8,32.9,87.1,32.9,87.1,32.1
		C87.1,32.1,87.1,32.1,87.1,32.1z"/>
	<path class="st3" d="M63.4,120.9c-2.1-1.6-4-3.6-5.5-5.9c-2.7-4.1-4.7-9-6-13.8c-4.6-16.7-5.8-34.7-0.2-51c3.3,1.3,7,1.9,10.6,1.5
		c-0.7,2.3-1.3,4.6-1.8,6.9c-0.8,3.7-1.4,7.5-1.8,11.4c-0.4,3.7-0.6,7.4-0.6,11.1c0,11.3,1.5,22.6,3.7,33.7
		C62.2,117,62.7,119,63.4,120.9z"/>
	<path class="st3" d="M98.3,77.6c-1,7.8-3.4,18.5-8,26.6c-2.5,4.3-5,7.8-7.5,11.3c-1.2,1.6-2.6,3.2-4.1,4.5c0.2-0.6,0.4-1.2,0.6-1.8
		c3.9-11.1,7.5-22.3,9.3-33.8c0.7-4.3,1.2-8.8,1.3-13.2c0.1-4,0-8-0.5-12c-0.3-2.3-0.7-4.7-1.2-7c1.2,0.2,2.5,0.3,3.8,0.2
		c3.4-0.2,5.3-0.4,6.9-1.8c0.4,2.5,0.6,5.1,0.7,7.7C99.8,64.7,99.2,71.3,98.3,77.6z"/>
	<path class="st3" d="M89.9,71.2c-6.6,4.4-12.6,9.6-18,15.3c-3.8-6-8.3-11.6-13.3-16.4c0.4-3.8,1-7.6,1.8-11.4
		c4.7,4.1,8.9,8.7,12.7,13.7c4.6-5.3,10.1-9.8,16.2-13.2C89.9,63.2,90.1,67.2,89.9,71.2z"/>
	<path class="st1" d="M165.6,143.8c0.9-1,1.9-1.9,2.9-2.8c0.3-0.3,0.2-0.9-0.3-1c-3.6-1.1-6.8-3.2-8.4-6.8c-0.6-1.3-1.6-4.9,0.6-4.9
		c1.6,0,3.2,0.1,4.8,0.2c4.4,0.3,8.8,1.2,13.2,0.8c3.9-0.4,7.7-1.7,11.4-3.2c0.7-0.3,0.4-1.5-0.3-1.2c-3.7,1.4-7.6,2.8-11.6,3.2
		c-2.4,0.2-4.9,0-7.3-0.3c-2.9-0.4-5.9-0.6-8.8-0.7c-1.2-0.1-3.3-0.4-3.8,1.1s-0.1,3.8,0.5,5.1c1.6,4.1,5.3,6.6,9.4,7.9l-0.3-1
		c-0.9,0.9-1.9,1.9-2.9,2.8C164.2,143.5,165,144.4,165.6,143.8L165.6,143.8L165.6,143.8z"/>
	<g>
		<path class="st4" d="M62.7,31.4c0,1-0.2,2.3-0.4,3.4c-0.5-0.1-1.1-0.2-1.7-0.3c0.1-0.7,0.2-1.5,0.2-2.1s-0.1-1.5-0.5-1.8
			c-0.2-0.2-0.4-0.4-0.6-0.4C59,30.1,58.3,31,58,31.9c-0.2,0.7-0.3,1.5-0.3,2.4c-0.4,0-0.7,0-1.1,0c-0.6,0-1.2,0-1.8,0.1
			c0.1-1.3,0.2-2.5,0.7-3.6c0-0.1,0-0.1,0.1-0.2l0.1-0.1l0.1-0.2c0.4-0.8,1-1.5,1.7-2c0.1-0.1,0.2-0.1,0.3-0.2
			c0.7-0.5,1.5-0.8,2.3-0.7c0.2,0,0.3,0.1,0.5,0.1c0.4,0.1,0.8,0.3,1.1,0.6C62.4,28.8,62.7,30.3,62.7,31.4z"/>
		<path class="st1" d="M62.1,31.4c0,1.1-0.1,2.2-0.4,3.2l0.8-0.4c-0.6-0.1-1.2-0.2-1.8-0.3l0.6,0.8c0.2-1,0.3-2,0.2-3
			c-0.1-0.9-0.5-1.9-1.5-2.1s-1.8,0.7-2.2,1.5c-0.5,1-0.6,2.1-0.7,3.3l0.6-0.6c-1,0-2.1,0-3.1,0.1l0.8,0.6c0.1-1.2,0.2-2.5,0.8-3.6
			c0.5-1,1.2-1.8,2.2-2.4s2.2-0.5,3,0.4C61.9,29.4,62.1,30.5,62.1,31.4c0,0.8,1.2,0.8,1.2,0c0-1-0.2-2-0.7-2.9
			c-0.5-1-1.5-1.6-2.5-1.8c-2.2-0.4-4.4,1.6-5.2,3.5c-0.6,1.3-0.8,2.7-0.9,4.1c0,0.5,0.4,0.7,0.8,0.6c0.9-0.1,1.9-0.1,2.8-0.1
			c0.3,0,0.6-0.3,0.6-0.6c0-0.8,0-1.6,0.4-2.4c0.1-0.3,0.6-1.2,1-1.1c0.5,0.1,0.5,1,0.5,1.4c0,0.7,0,1.5-0.2,2.2
			c-0.1,0.4,0.2,0.7,0.6,0.8c0.5,0.1,1,0.2,1.5,0.2c0.3,0.1,0.7-0.1,0.8-0.4c0.2-1.2,0.4-2.4,0.4-3.5C63.3,30.6,62.1,30.6,62.1,31.4
			L62.1,31.4z"/>
	</g>
	<path class="st1" d="M60.9,32.4c0,0.7-0.1,1.5-0.2,2.1c-1-0.1-2-0.2-3-0.3c0-0.8,0.1-1.6,0.3-2.4c0.3-0.9,1-1.9,1.8-1.8
		c0.2,0,0.5,0.2,0.6,0.4C60.8,30.9,60.9,31.7,60.9,32.4z"/>
</g>
<g id="b">
	<g class="st5">
		<path class="st6" d="M147,59.1l-1.1,17.6c-0.7-0.1-2.1-0.3-4.4-0.5c-1.3-0.1-2.9-0.1-4.7-0.1l-0.5,9c1.9,0,4.9-0.1,8.9-0.4
			c-0.2,0.8-0.5,2.2-0.9,4.1c-0.2,1.1-0.4,2.5-0.7,4.1c-0.5-0.1-1.7-0.3-3.6-0.5c-1.4-0.1-2.8-0.1-4.1-0.1l-0.2,9.7H120l-0.9-21.9
			c-0.1-5-0.6-12-1.3-21H147z"/>
	</g>
	<g class="st5">
		<path class="st7" d="M147,59.1l-1.1,17.6c-0.7-0.1-2.1-0.3-4.4-0.5c-1.3-0.1-2.9-0.1-4.7-0.1l-0.5,9c1.9,0,4.9-0.1,8.9-0.4
			c-0.2,0.8-0.5,2.2-0.9,4.1c-0.2,1.1-0.4,2.5-0.7,4.1c-0.5-0.1-1.7-0.3-3.6-0.5c-1.4-0.1-2.8-0.1-4.1-0.1l-0.2,9.7H120l-0.9-21.9
			c-0.1-5-0.6-12-1.3-21H147z"/>
	</g>
	<g class="st5">
		<path class="st6" d="M181.7,80.5c0,2.7-0.8,5.2-2.3,7.3c-1.4,1.8-3.1,3.2-5.1,4c0.4,0.7,1.5,2.1,3.2,4.2c0.8,1,2.1,2.3,3.9,3.9
			c-0.7,0.3-2.2,0.9-4.6,1.9c-1.7,0.8-3.2,1.5-4.7,2.2c-0.4-0.5-1.4-1.9-2.9-4.2c-0.7-1.1-1.7-3-3-5.7h0l-0.2,7.8h-12.6
			c-0.2-3.2-0.4-8.6-0.7-16.1c-0.1-4.4-0.4-10.5-0.9-18.2c4.1-0.4,7.8-0.6,11.2-0.6C175.4,67,181.7,71.5,181.7,80.5z M171.6,85.3
			c0-1.4-0.6-2.4-1.8-3c-0.9-0.4-2-0.6-3.3-0.6l-0.1,7.6c1.2,0,2.3-0.3,3.3-0.8C170.9,87.8,171.6,86.7,171.6,85.3z"/>
		<path class="st6" d="M215.2,84.1c0,5.3-1.4,9.7-4.1,13.3c-2.8,3.8-6.5,5.7-10.9,5.7c-4.6,0-8.3-1.9-11.1-5.7c-2.7-3.6-4-8-4-13.3
			c0-5.6,1.5-10,4.4-13.2c2.7-3,6.3-4.5,10.7-4.5c4.3,0,7.9,1.5,10.6,4.5C213.8,74.1,215.2,78.5,215.2,84.1z M204.5,88
			c0-4.1-1.4-6.2-4.2-6.2c-2.7,0-4.1,2.1-4.1,6.3c0,1.7,0.4,3.2,1.1,4.7c0.8,1.6,1.8,2.4,3,2.4c1.1,0,2.2-0.8,3-2.5
			C204.1,91.2,204.5,89.6,204.5,88z"/>
		<path class="st6" d="M234.7,67.7l-0.9,18.2c-0.2,3.9-0.4,9.3-0.6,16.1h-12.5l-1.5-34.3H234.7z"/>
		<path class="st6" d="M269.3,85.1c0,5.4-1.7,9.6-5,12.7c-3.4,3.2-8.3,4.8-14.5,4.8c-4,0-7.1-0.2-9.3-0.6l-0.6-16.6
			c-0.2-4.3-0.5-10.1-1-17.6c3.2-0.5,6.6-0.7,10.1-0.7c6.3,0,11.2,1.5,14.7,4.4C267.4,74.6,269.3,79.1,269.3,85.1z M260.1,87.8
			c0-2.2-0.7-3.8-2.1-4.8c-1.2-0.9-2.7-1.3-4.5-1.2l-0.3,14c1.9-0.1,3.5-0.7,4.7-1.9C259.4,92.6,260.1,90.5,260.1,87.8z"/>
	</g>
	<g class="st5">
		<path class="st7" d="M181.7,80.5c0,2.7-0.8,5.2-2.3,7.3c-1.4,1.8-3.1,3.2-5.1,4c0.4,0.7,1.5,2.1,3.2,4.2c0.8,1,2.1,2.3,3.9,3.9
			c-0.7,0.3-2.2,0.9-4.6,1.9c-1.7,0.8-3.2,1.5-4.7,2.2c-0.4-0.5-1.4-1.9-2.9-4.2c-0.7-1.1-1.7-3-3-5.7h0l-0.2,7.8h-12.6
			c-0.2-3.2-0.4-8.6-0.7-16.1c-0.1-4.4-0.4-10.5-0.9-18.2c4.1-0.4,7.8-0.6,11.2-0.6C175.4,67,181.7,71.5,181.7,80.5z M171.6,85.3
			c0-1.4-0.6-2.4-1.8-3c-0.9-0.4-2-0.6-3.3-0.6l-0.1,7.6c1.2,0,2.3-0.3,3.3-0.8C170.9,87.8,171.6,86.7,171.6,85.3z"/>
		<path class="st7" d="M215.2,84.1c0,5.3-1.4,9.7-4.1,13.3c-2.8,3.8-6.5,5.7-10.9,5.7c-4.6,0-8.3-1.9-11.1-5.7c-2.7-3.6-4-8-4-13.3
			c0-5.6,1.5-10,4.4-13.2c2.7-3,6.3-4.5,10.7-4.5c4.3,0,7.9,1.5,10.6,4.5C213.8,74.1,215.2,78.5,215.2,84.1z M204.5,88
			c0-4.1-1.4-6.2-4.2-6.2c-2.7,0-4.1,2.1-4.1,6.3c0,1.7,0.4,3.2,1.1,4.7c0.8,1.6,1.8,2.4,3,2.4c1.1,0,2.2-0.8,3-2.5
			C204.1,91.2,204.5,89.6,204.5,88z"/>
		<path class="st7" d="M234.7,67.7l-0.9,18.2c-0.2,3.9-0.4,9.3-0.6,16.1h-12.5l-1.5-34.3H234.7z"/>
		<path class="st7" d="M269.3,85.1c0,5.4-1.7,9.6-5,12.7c-3.4,3.2-8.3,4.8-14.5,4.8c-4,0-7.1-0.2-9.3-0.6l-0.6-16.6
			c-0.2-4.3-0.5-10.1-1-17.6c3.2-0.5,6.6-0.7,10.1-0.7c6.3,0,11.2,1.5,14.7,4.4C267.4,74.6,269.3,79.1,269.3,85.1z M260.1,87.8
			c0-2.2-0.7-3.8-2.1-4.8c-1.2-0.9-2.7-1.3-4.5-1.2l-0.3,14c1.9-0.1,3.5-0.7,4.7-1.9C259.4,92.6,260.1,90.5,260.1,87.8z"/>
	</g>
	<g class="st5">
		<path class="st6" d="M316.2,76.6c-1-0.3-2.3-0.5-3.9-0.5c-3,0-5.4,0.8-7.3,2.3c-2.1,1.7-3.2,4.3-3.2,7.6c0,2.6,0.8,4.7,2.5,6.3
			s3.8,2.5,6.5,2.5c1.8,0,3.6-0.5,5.2-1.4c-0.2,0.8-0.5,2.2-0.9,4.2c-0.3,1.4-0.5,2.8-0.8,4.2c-2.1,0.8-4.8,1.2-8,1.2
			c-5.9,0-10.9-2-15.1-5.9c-4.5-4.3-6.8-9.9-6.8-16.9c0-6.4,2-11.6,5.9-15.5c4.2-4.2,9.9-6.3,17.3-6.3c3.5,0,6.1,0.2,7.7,0.6
			L316.2,76.6z"/>
	</g>
	<g class="st5">
		<path class="st7" d="M316.2,76.6c-1-0.3-2.3-0.5-3.9-0.5c-3,0-5.4,0.8-7.3,2.3c-2.1,1.7-3.2,4.3-3.2,7.6c0,2.6,0.8,4.7,2.5,6.3
			s3.8,2.5,6.5,2.5c1.8,0,3.6-0.5,5.2-1.4c-0.2,0.8-0.5,2.2-0.9,4.2c-0.3,1.4-0.5,2.8-0.8,4.2c-2.1,0.8-4.8,1.2-8,1.2
			c-5.9,0-10.9-2-15.1-5.9c-4.5-4.3-6.8-9.9-6.8-16.9c0-6.4,2-11.6,5.9-15.5c4.2-4.2,9.9-6.3,17.3-6.3c3.5,0,6.1,0.2,7.7,0.6
			L316.2,76.6z"/>
	</g>
	<g class="st5">
		<path class="st6" d="M344.4,95.1c-0.1,0.6-0.4,1.7-0.8,3.4c-0.2,1-0.4,2.1-0.5,3.4h-20.2c-0.1-3.5-0.3-9.3-0.6-17.3
			c-0.2-4.1-0.5-9.8-1-17h15.5L335.5,96c1.4,0,3.6-0.2,6.5-0.5C342.6,95.5,343.4,95.4,344.4,95.1z"/>
		<path class="st6" d="M363.2,67.6l-0.9,18.2c-0.2,3.9-0.4,9.3-0.6,16.1h-12.5l-1.5-34.3H363.2z"/>
		<path class="st6" d="M403.4,67.6c-0.2,3.1-0.5,8.8-0.9,17.1c-0.2,5.1-0.4,10.8-0.5,17.2H394l-0.2-10.5l-7.9,11.3l-8.5-11.3
			l-0.2,10.4h-8c-0.1-3.4-0.3-9.2-0.6-17.3c-0.2-4.7-0.6-10.3-1.1-17h12.8c0.4,1.1,1.2,2.8,2.3,5.3c0.8,1.7,2,3.8,3.4,6.1
			c0.6-1,1.8-3.1,3.5-6.3c0.6-1.2,1.4-2.9,2.3-5.1H403.4z"/>
	</g>
	<g class="st5">
		<path class="st7" d="M344.4,95.1c-0.1,0.6-0.4,1.7-0.8,3.4c-0.2,1-0.4,2.1-0.5,3.4h-20.2c-0.1-3.5-0.3-9.3-0.6-17.3
			c-0.2-4.1-0.5-9.8-1-17h15.5L335.5,96c1.4,0,3.6-0.2,6.5-0.5C342.6,95.5,343.4,95.4,344.4,95.1z"/>
		<path class="st7" d="M363.2,67.6l-0.9,18.2c-0.2,3.9-0.4,9.3-0.6,16.1h-12.5l-1.5-34.3H363.2z"/>
		<path class="st7" d="M403.4,67.6c-0.2,3.1-0.5,8.8-0.9,17.1c-0.2,5.1-0.4,10.8-0.5,17.2H394l-0.2-10.5l-7.9,11.3l-8.5-11.3
			l-0.2,10.4h-8c-0.1-3.4-0.3-9.2-0.6-17.3c-0.2-4.7-0.6-10.3-1.1-17h12.8c0.4,1.1,1.2,2.8,2.3,5.3c0.8,1.7,2,3.8,3.4,6.1
			c0.6-1,1.8-3.1,3.5-6.3c0.6-1.2,1.4-2.9,2.3-5.1H403.4z"/>
	</g>
</g>
</svg>
