<?xml version="1.0" encoding="utf-8"?>
<!-- Generator: Adobe Illustrator 26.1.0, SVG Export Plug-In . SVG Version: 6.00 Build 0)  -->
<svg version="1.1" id="Calque_1" xmlns="http://www.w3.org/2000/svg" xmlns:xlink="http://www.w3.org/1999/xlink" x="0px" y="0px"
	 viewBox="0 0 881.5 176.1" style="enable-background:new 0 0 881.5 176.1;" xml:space="preserve">
<style type="text/css">
	.st0{fill:#1D1D1B;}
	.st1{fill:#D2D2D2;}
	.st2{fill:#BBBABA;}
	.st3{fill:#FFFFFF;stroke:#1D1D1B;stroke-miterlimit:10;}
	.st4{fill:#FFFFFF;}
	.st5{fill:#C2E5F7;}
	.st6{enable-background:new    ;}
	.st7{fill:none;stroke:#1D1D1B;stroke-miterlimit:10;}
</style>
<g id="a">
	<path class="st0" d="M100.2,84.3c1.2-7.7,2.4-15.5,2.5-23.4c0-0.8-1.2-0.8-1.2,0c-0.1,7.7-1.3,15.4-2.4,23
		C98.9,84.7,100.1,85.1,100.2,84.3L100.2,84.3L100.2,84.3z"/>
	<g>
		<path class="st1" d="M216.3,136c-4.4,4-12.5,7.3-21.4,9.3c-0.9,0.2-1.8,0.4-2.8,0.5c-8.4,2.3-18.4,6.2-24.9,10.7
			c-0.5,0.4-0.8,0.8-1.4,0.9c-0.4,0.1-1.1,0-1.4-0.3c-2.1-2-2.4-6.6-1.8-9.3c0.4-1.9,1.4-3.2,2.6-4.5c-12.8,1.4-25.9,0.9-38.7,0.5
			c-1,0-1.9-0.1-2.9-0.1c0,1.1-0.5,2.2-1.3,3.1c-1,1.1-2.3,1.9-3.7,2.4c-7,2.4-14.4,3.5-21.7,3c-2.3-0.1-5.5-0.5-7.6-1.5
			c-2.1-1-3.2-2.2-3.9-4.5c-0.4-1.3-0.4-2.7-0.3-4.1c-8.5-0.8-16.8-2.5-24-6.8c-2.5-1.5-4.9-3.3-7.1-5.3c-2.2-2-4.3-4.2-6.3-6.4
			c-3.8-4.2-7.3-8.8-9.4-14.1c-1.3-3.3-1.9-6.8-2.2-10.3c-0.2-2.4-0.3-4.8-0.4-7.1C35.3,71.5,37.6,50,48.7,32.7
			C52,27.5,56.3,22.6,62,20c9.3-4.2,20.8-1,28.1,6.1c2.8,2.7,5,5.8,6.7,9.2c-1.4-0.5-2.9-0.4-4-0.2c-4.8,1.1-7.7,1.9-12.3,3.3
			c-0.1-0.8-0.7-1.3-1.4-1.4c-0.5,0-1.2,0.1-1.8,0.2c-0.8,0.1-1.5-0.3-2.2-0.3c-0.7,0-1.6,0.5-1.5,1.2c-3.7-1.3-7.5-2.7-11.4-3.4
			c0.2-1.1,0.4-2.3,0.4-3.4c0-1.2-0.3-2.6-1.2-3.3c-0.3-0.3-0.7-0.5-1.1-0.6c-0.2-0.1-0.3-0.1-0.5-0.1c-0.8-0.1-1.6,0.2-2.3,0.7
			c-0.1,0.1-0.2,0.1-0.3,0.2c-0.7,0.5-1.3,1.2-1.7,2l-0.1,0.2l-0.1,0.1c0,0.1,0,0.1-0.1,0.2c-0.5,1.1-0.7,2.4-0.7,3.6
			c-0.6,0.1-1.2,0.3-1.8,0.5c-2.1,1-3.4,3.3-4.2,5.4c-1.1,2.7-1.8,6.1,0.2,8.2c0.8,0.8,1.8,1.3,2.8,1.7c0,0,0,0,0,0
			c-5.5,16.3-4.3,34.3,0.2,51c1.3,4.7,3.2,9.7,6,13.8c1.5,2.2,3.3,4.3,5.5,5.9c-0.7-1.9-1.2-4-1.6-6c-2.2-11.1-3.8-22.4-3.7-33.7
			c0-3.7,0.2-7.4,0.6-11.1c0.4-3.8,1-7.6,1.8-11.4c0.5-2.3,1.1-4.6,1.8-6.9c2-0.2,4-0.6,5.9-1.4c1,0.8,1.9,1.3,3.5,2
			c1.8,0.8,4.2,0.9,6.2,0.6c2-0.3,4.3-1.5,5.4-2.3c1.7,0.7,3.3,1.2,5,1.5c0.5,2.3,0.9,4.7,1.2,7c0.5,4,0.7,8,0.5,12
			c-0.1,4.4-0.6,8.8-1.3,13.2c-1.9,11.6-5.4,22.8-9.3,33.8c-0.2,0.6-0.4,1.2-0.6,1.8c1.5-1.3,2.9-2.9,4.1-4.5
			c2.6-3.5,5.1-7,7.5-11.3c4.6-8,7-18.7,8-26.6c0.8-6.3,1.4-12.9,1.2-19.3c-0.1-2.6-0.3-5.2-0.7-7.7c0.2-0.2,0.5-0.4,0.7-0.7
			c0.6-0.6,1-1.2,1.4-1.9c0.4,1.9,0.6,3.8,0.8,5.7c0.2,2.4,0.3,4.8,0.2,7.2c3.7,3.2,8.6,5.1,13.5,5.9c6.6,1.1,13.3,0.5,20,0.3
			c26.2-0.5,50,3.1,65.8,11c12.8,6.3,17.8,13.7,20.3,18c2.4,4.1,4.4,9.1,4.6,14.2C227,126.7,220.3,132.4,216.3,136L216.3,136z"/>
		<path class="st0" d="M215.9,135.6c-3.2,2.9-7.3,4.7-11.2,6.2c-2.4,0.9-4.8,1.6-7.2,2.3s-4.7,1-7.1,1.6c-4.6,1.3-9,2.9-13.4,4.8
			c-2.2,1-4.4,2-6.5,3.2c-0.9,0.5-1.8,1-2.6,1.6s-2.1,1.9-3.1,1.3c-1.7-1-1.9-4.5-1.9-6.2c0.1-2.6,0.9-4.7,2.7-6.6
			c0.3-0.4,0.1-1.1-0.4-1.1c-13.8,1.5-27.8,0.9-41.6,0.4c-0.3,0-0.6,0.3-0.6,0.6c-0.2,4.4-6.1,5.5-9.5,6.3c-4,1-8,1.5-12.1,1.6
			c-3.6,0.1-7.5,0.1-10.9-1.2c-3.8-1.4-5-4.6-4.7-8.4c0-0.4-0.3-0.6-0.6-0.6c-6.7-0.6-13.4-1.8-19.5-4.5s-11.5-7.3-16.2-12.4
			s-8.8-10.2-10.9-16.5s-2.2-13.7-2.2-20.6c0-12.8,1.2-25.7,5.2-37.9c2-6,4.7-11.9,8.2-17.2s7.7-9.9,13.5-12.1s12.8-1.6,18.6,1
			c6.4,3,11.3,8.2,14.5,14.4l0.7-0.9c-2.8-0.8-5.6,0.1-8.3,0.8s-5.5,1.5-8.3,2.4l0.8,0.4C81,37.6,80.6,37,80,36.7
			c-1-0.5-1.9,0-2.9-0.1s-1.9-0.5-2.8-0.1c-0.7,0.3-1.1,0.9-1.2,1.6l0.8-0.6c-3.7-1.3-7.5-2.7-11.4-3.4l0.4,0.8c0.6-2.8,1-7.8-3-8.2
			c-1.8-0.2-3.5,1.2-4.5,2.5c-1,1.5-1.3,3.3-1.4,5.1l0.5-0.6c-4.1,0.7-6.1,4.6-7.1,8.3c-0.5,1.8-0.7,3.7,0.1,5.5s2.4,2.7,4.1,3.3
			l-0.4-0.8C47.9,59.7,47,69.9,47.6,80c0.3,5,1.1,9.9,2.1,14.7s2.2,9.5,4.2,14c2.1,4.9,4.9,9.5,9.2,12.8c0.4,0.3,1.1-0.2,0.9-0.7
			c-1.5-4-2.1-8.4-2.8-12.7c-0.8-4.6-1.4-9.2-1.8-13.8c-0.8-9-0.9-18.1,0.3-27.1c0.7-5.2,1.8-10.3,3.3-15.2l-0.6,0.5
			c2.1-0.2,4.1-0.7,6-1.5l-0.6-0.2c2.8,2.3,6.4,3.3,10.1,2.8c1.7-0.2,3.3-0.9,4.7-1.7c0.3-0.2,0.6-0.4,0.9-0.4s0.9,0.3,1.3,0.5
			c1.1,0.4,2.2,0.7,3.3,0.8l-0.4-0.4c3.9,17.8,0.6,36-4.7,53.2c-1.5,4.8-3.1,9.5-4.8,14.2c-0.2,0.6,0.6,1,1,0.6
			c3.5-3.2,6.2-7.3,8.8-11.2s4.9-8.1,6.5-12.6c3.3-8.9,4.7-18.4,5.4-27.8c0.5-6.1,0.5-12.2-0.4-18.3l-0.2,0.6
			c0.9-0.7,1.6-1.7,2.2-2.7l-1.1-0.2c0.8,4.1,0.9,8.1,1,12.2c0,1.3,1.3,1.9,2.2,2.5c1.4,1,2.9,1.8,4.5,2.4
			c6.8,2.9,14.2,2.9,21.5,2.6c14.6-0.5,29.1-0.1,43.5,2.3c11.9,2,24.1,5.4,34.3,12.1c8.8,5.8,16.1,14.9,17.8,25.5
			c1,6.3,0.3,13.6-2.6,19.3C221.1,130.5,218.6,133.1,215.9,135.6c-0.6,0.6,0.3,1.4,0.9,0.9c2.4-2.2,4.7-4.5,6.4-7.3
			c2.6-4.3,3.6-9.4,3.8-14.4c0.1-3.5-0.1-6.9-1-10.2s-2.3-6.2-4-9c-2.1-3.5-4.6-6.6-7.6-9.4c-8.9-8.1-20.6-12.5-32.2-15.2
			c-13.7-3.2-27.8-4.3-41.8-4.3c-8.8,0-18,1.3-26.6-0.7c-2-0.4-3.9-1.1-5.8-1.9c-0.9-0.4-1.7-0.9-2.6-1.4c-0.7-0.4-2.2-1.1-2.5-1.8
			c-0.4-0.8-0.1-2.3-0.2-3.2c0-1.1-0.1-2.2-0.2-3.4c-0.2-2.1-0.4-4.2-0.8-6.3c-0.1-0.5-0.9-0.6-1.1-0.2c-0.3,0.6-0.7,1.1-1.2,1.6
			c-0.2,0.3-0.8,0.6-0.9,0.9c-0.2,0.3-0.1,0.6,0,1c0.1,0.8,0.2,1.6,0.3,2.5c0.3,2.8,0.4,5.6,0.3,8.5c-0.1,5.6-0.6,11.1-1.4,16.6
			c-1.4,9.4-3.9,18.7-8.9,26.9c-1.5,2.4-3.1,4.8-4.7,7.1s-3.5,4.8-5.7,6.8l1,0.6c6.2-16.9,11.6-34.8,11.3-53
			c-0.1-5.1-0.7-10.1-1.8-15c0-0.2-0.2-0.4-0.4-0.4c-1-0.2-1.9-0.4-2.9-0.7c-0.7-0.2-1.6-0.8-2.3-0.8c-0.5,0-1.1,0.6-1.5,0.8
			c-0.8,0.5-1.7,0.8-2.5,1.1c-3.6,1.1-7.7,0.2-10.6-2.1c-0.2-0.1-0.4-0.2-0.6-0.2c-1.8,0.8-3.7,1.2-5.7,1.4c-0.3,0-0.5,0.2-0.6,0.5
			c-5.5,17.6-5,36.3-2.1,54.3c0.8,5,1.4,10.3,3.2,15.1l0.9-0.7c-7.7-5.8-10.6-16.1-12.6-25.1c-2.1-9.4-3-19.2-2.2-28.8
			c0.5-5.5,1.6-10.9,3.4-16.1c0.1-0.3-0.1-0.7-0.4-0.8c-1.7-0.5-3.1-1.6-3.5-3.4c-0.3-1.5,0-3.1,0.5-4.5c1-3.1,2.6-6.1,6-6.8
			c0.3,0,0.4-0.3,0.5-0.6c0.1-1.3,0.2-2.6,0.8-3.7c0.6-1.2,2-2.6,3.4-2.7c3.3-0.1,2.6,4.7,2.2,6.6c-0.1,0.3,0.1,0.7,0.4,0.8
			c3.9,0.7,7.6,2,11.4,3.4c0.4,0.2,0.8-0.2,0.8-0.6c0.1-1.1,2.3-0.2,3.1-0.3c1,0,2.3-0.6,2.6,0.8c0.1,0.3,0.4,0.5,0.8,0.4
			c2.5-0.8,5-1.5,7.5-2.2c2.7-0.7,5.7-1.8,8.4-1c0.6,0.2,0.9-0.5,0.7-0.9c-2.9-5.6-7.2-10.6-12.8-13.8c-5-2.8-11-4.3-16.8-3.5
			C55,19.5,47.2,32,42.6,42.9c-5.2,12.4-7.1,26-7.5,39.4c-0.2,7-0.3,14.2,0.9,21.2s4.6,12.7,9,18c5.1,6.1,10.9,12,18,15.6
			s14.5,4.9,22.1,5.6l-0.6-0.6c-0.2,3.8,0.9,7.4,4.5,9.1s8.4,1.8,12.4,1.7c4.8-0.1,9.6-0.8,14.3-2.1c3.6-1,8.4-2.6,8.6-7.1l-0.6,0.6
			c13.9,0.6,27.8,1.1,41.6-0.4l-0.4-1.1c-2.9,3.2-3.8,7.6-2.5,11.7c0.5,1.5,1.4,3.4,3.2,3.4c1.1,0,1.8-0.8,2.6-1.4
			c1.1-0.7,2.1-1.4,3.3-2c4.8-2.7,10-4.8,15.2-6.5s10.7-2.6,16-4.3s10.2-3.8,14.3-7.4C217.4,136,216.5,135.1,215.9,135.6
			L215.9,135.6z"/>
	</g>
	<g>
		<path class="st2" d="M101.1,48.1c-0.4,0.6-0.8,1.2-1.4,1.9c-0.2,0.3-0.5,0.5-0.7,0.7c-1.6,1.3-3.5,1.5-6.9,1.8
			c-1.3,0.1-2.6,0-3.8-0.2c-1.6-0.3-3.3-0.8-5-1.5c-1.1,0.8-3.4,2-5.4,2.3c-2,0.3-4.3,0.1-6.2-0.6c-1.6-0.7-2.5-1.1-3.5-2
			c-1.8,0.8-3.8,1.3-5.9,1.4c-3.5,0.3-7.2-0.3-10.6-1.5c0,0,0,0,0,0c-1-0.4-2.1-0.9-2.8-1.7c-2-2.1-1.3-5.5-0.2-8.2
			c0.9-2.2,2.1-4.5,4.2-5.4c0.6-0.3,1.2-0.4,1.8-0.5c0.6-0.1,1.2-0.1,1.8-0.1c0.4,0,0.8,0,1.1,0c1,0,2,0.1,3,0.3
			c0.6,0.1,1.1,0.2,1.7,0.3c3.9,0.7,7.6,2,11.4,3.4c-0.1-0.7,0.8-1.2,1.5-1.2c0.8,0,1.5,0.4,2.2,0.3c0.5,0,1.2-0.2,1.8-0.2
			c0.7,0.1,1.3,0.7,1.4,1.4c4.5-1.4,7.4-2.2,12.3-3.3c1.1-0.2,2.6-0.3,4,0.2c0.6,0.2,1.2,0.5,1.7,1c1,1,2.9,3.9,3.3,5.8
			C102.4,44.4,102.1,46.3,101.1,48.1L101.1,48.1z"/>
		<path class="st0" d="M100.5,47.7c-1.5,2.5-3.4,3.5-6.2,3.8c-3.3,0.4-6.4,0.2-9.6-1c-0.5-0.2-1.1-0.6-1.6-0.5
			c-0.4,0.1-0.9,0.6-1.3,0.8c-1.3,0.8-2.8,1.3-4.3,1.5c-3.1,0.3-6.3-0.5-8.8-2.5c-0.2-0.1-0.4-0.2-0.6-0.2c-4.5,1.8-9.4,1.9-14,0.6
			c-2.2-0.6-4.8-1.4-5.6-3.8c-0.6-1.9,0-4,0.7-5.7c0.7-1.9,1.7-3.9,3.4-5c1.9-1.2,4.6-1,6.8-0.8c4.9,0.5,9.6,2.1,14.1,3.8
			c0.4,0.2,0.8-0.2,0.8-0.6c0.1-1.1,2.3-0.2,3.1-0.3c1,0,2.3-0.6,2.6,0.8c0.1,0.3,0.4,0.5,0.8,0.4c2.4-0.7,4.7-1.5,7.1-2.1
			s5.4-1.8,7.9-1.3c2.4,0.4,3.7,2.7,4.7,4.7C101.7,42.8,101.8,45.4,100.5,47.7c-0.4,0.7,0.7,1.3,1.1,0.6c1.3-2.3,1.5-5,0.5-7.5
			c-0.8-2-2.2-4.6-4.2-5.7c-2.7-1.5-5.8-0.4-8.6,0.3c-3,0.7-5.9,1.6-8.8,2.5l0.8,0.4C81,37.6,80.6,37,80,36.7c-1-0.5-1.9,0-2.9-0.1
			s-1.9-0.5-2.8-0.1c-0.7,0.3-1.1,0.9-1.2,1.6l0.8-0.6c-4.3-1.5-8.6-3.1-13.1-3.7c-3.5-0.5-7.7-0.8-10.3,2.1
			c-2.1,2.4-3.7,6.5-3.4,9.7c0.4,3.8,4.1,5.2,7.3,6c4.6,1.2,9.6,1.1,14-0.8l-0.6-0.2c2.4,2,5.5,3,8.6,2.9c1.6,0,3-0.4,4.4-1
			c0.7-0.3,1.4-0.8,2.1-1.1c0.5-0.2,0.3-0.2,0.9,0c0.4,0.2,0.8,0.3,1.2,0.4c3.3,1.1,6.8,1.1,10.2,0.6c2.8-0.4,4.8-1.9,6.3-4.3
			C102,47.7,100.9,47.1,100.5,47.7L100.5,47.7z"/>
	</g>
	<path class="st0" d="M83.4,50.1L83.4,50.1C83.4,50.1,83.4,50.1,83.4,50.1c-0.1-0.1-0.2-0.1-0.2-0.1c-0.1,0-0.2-0.1-0.3-0.2
		c-0.2-0.1-0.4-0.2-0.7-0.3c-0.5-0.2-0.9-0.5-1.4-0.7c-0.3-0.2-0.7-0.1-0.9,0.2c-0.2,0.3-0.1,0.7,0.2,0.9c1,0.5,2,1,3,1.4
		c0.1,0.1,0.4,0,0.5-0.1c0.1-0.1,0.2-0.2,0.3-0.4c0-0.2,0-0.3-0.1-0.5S83.6,50.2,83.4,50.1L83.4,50.1L83.4,50.1z"/>
	<path class="st0" d="M80.4,37.9C80.2,38,80,38,79.7,38.1c-0.2,0-0.3,0.2-0.4,0.3c-0.1,0.1-0.1,0.2-0.1,0.2c0,0.1,0,0.2,0,0.2
		c0.1,0.2,0.1,0.3,0.3,0.4s0.3,0.1,0.5,0.1c0.2-0.1,0.5-0.2,0.7-0.2c0.1,0,0.2-0.1,0.2-0.1c0.1,0,0.1-0.1,0.2-0.2
		c0.1-0.1,0.1-0.2,0.1-0.2c0-0.1,0-0.2,0-0.2c-0.1-0.2-0.1-0.3-0.3-0.4S80.6,37.8,80.4,37.9L80.4,37.9z"/>
	<path class="st0" d="M71.1,48.1c-1,0.7-2,1.3-3.1,1.8c-0.3,0.1-0.4,0.6-0.2,0.9c0.2,0.3,0.5,0.4,0.9,0.2c1.1-0.5,2.2-1.1,3.1-1.8
		c0.3-0.2,0.4-0.5,0.2-0.9C71.7,48,71.3,47.9,71.1,48.1L71.1,48.1z"/>
	<path class="st0" d="M74.4,37.8l-0.6-0.2c-0.1,0-0.2,0-0.2,0c-0.1,0-0.2,0-0.2,0.1s-0.1,0.1-0.2,0.2c-0.1,0.1-0.1,0.1-0.1,0.2
		l0,0.2c0,0.1,0,0.2,0.1,0.3l0.1,0.1c0.1,0.1,0.2,0.1,0.3,0.2l0.6,0.2c0.1,0,0.2,0,0.2,0c0.1,0,0.2,0,0.2-0.1s0.1-0.1,0.2-0.2
		c0.1-0.1,0.1-0.1,0.1-0.2l0-0.2c0-0.1,0-0.2-0.1-0.3l-0.1-0.1C74.6,37.9,74.5,37.8,74.4,37.8L74.4,37.8z"/>
	<path class="st0" d="M107.5,134c3.2,0.6,6.1,2,8.9,3.7c1.3,0.8,2.7,1.7,4,2.6c1.2,0.9,2.5,1.8,2.6,3.4c0,0.8,1.3,0.8,1.2,0
		c-0.1-1.6-1-2.8-2.2-3.8c-1.3-1.1-2.8-2-4.2-2.9c-3.1-1.9-6.3-3.6-9.9-4.3C107,132.6,106.7,133.9,107.5,134L107.5,134L107.5,134z"
		/>
	<path class="st0" d="M85.7,142.1c0.7-12.6,4.4-25.2,9.8-36.6c0.3-0.7-0.7-1.4-1.1-0.6c-5.5,11.6-9.2,24.4-9.9,37.2
		C84.4,142.9,85.6,142.9,85.7,142.1L85.7,142.1L85.7,142.1z"/>
	<path class="st0" d="M108.2,118.7c0.6,6.7-0.4,13.4-2.9,19.6c-0.3,0.7,0.9,1.1,1.2,0.3c2.6-6.3,3.6-13.1,3-19.9
		C109.4,117.9,108.2,117.9,108.2,118.7L108.2,118.7z"/>
	<g>
		<path class="st1" d="M54,130c-1.3,3.6-2.8,6.1-5.7,9.1c-1.4,1-3.8,1.5-5.9,1.4c-4.2-0.1-8.6-0.8-11-4.2c-0.9-1.2-1.3-2.6-1.8-4.1
			c-1.9-6.5-2.9-13.3-2.7-20c0.5-0.6,1.1-1,2.2-1.4c1.6-0.6,3.6-1.1,5.5-1.6c0.3-3.3,0.8-6.7,1.5-10c0.3,3.5,1,7,2.2,10.3
			c2,5.3,5.6,9.9,9.4,14.1C49.7,125.8,51.8,128,54,130L54,130z"/>
		<path class="st0" d="M53.4,129.8c-0.6,1.7-1.4,3.3-2.3,4.8s-2.2,3.4-3.7,4.2c-3,1.6-7.5,1.2-10.6,0.3c-1.6-0.5-3.1-1.3-4.2-2.5
			c-1.5-1.6-2-3.8-2.6-5.8c-1.2-4.2-1.9-8.5-2.2-12.8c-0.1-1.2-0.1-2.4-0.2-3.5c0-0.5-0.1-1.1,0-1.7c0.1-0.6,0.2-0.7,0.7-1
			c1.9-1.1,4.4-1.5,6.5-2.1c0.3-0.1,0.4-0.3,0.5-0.6c0.3-3.3,0.8-6.6,1.4-9.8l-1.2-0.2c0.6,6.2,2.3,11.9,5.7,17.2s7.8,9.9,12.3,14.1
			c0.6,0.5,1.5-0.3,0.9-0.9c-4.4-4-8.6-8.5-11.9-13.5s-5.2-10.8-5.8-16.9c-0.1-0.7-1.1-0.9-1.2-0.2c-0.7,3.3-1.2,6.7-1.5,10.1
			l0.5-0.6c-2.2,0.5-4.5,1-6.5,2c-0.5,0.3-1.3,0.7-1.6,1.3c-0.1,0.3-0.1,0.8-0.1,1.2c0,0.8,0,1.6,0,2.4c0.2,5,0.9,10,2.2,14.9
			c1.1,4.1,2.4,7.9,6.6,9.6c3.5,1.4,8.2,1.8,11.8,0.5c2-0.7,3.3-2.4,4.5-4.1c1.3-1.9,2.3-4,3.2-6.2
			C54.9,129.4,53.7,129.1,53.4,129.8L53.4,129.8z"/>
	</g>
	<path class="st0" d="M35.7,126.7c-0.8-5.8-0.9-11.7-0.4-17.5c0.1-0.8-1.2-0.8-1.2,0c-0.5,5.9-0.3,11.9,0.5,17.8
		C34.6,127.8,35.8,127.5,35.7,126.7L35.7,126.7L35.7,126.7z"/>
	<path class="st0" d="M87.1,32.1c0-0.5,0.3-1,0.8-1.3c0,0,0.2-0.1,0.2-0.1c0,0,0,0,0,0l0.1,0c0.1,0,0.2,0,0.2-0.1
		c0.2,0,0.5,0,0.8,0.1c1,0.4,1.6,1.3,2,2.3c0.1,0.3,0.4,0.5,0.8,0.4c0.3-0.1,0.6-0.5,0.4-0.8c-0.2-0.7-0.6-1.4-1-1.9
		c-0.5-0.6-1.3-1.1-2-1.3c-0.8-0.2-1.6,0-2.3,0.5c-0.6,0.5-1.1,1.3-1.1,2.1C85.8,32.9,87.1,32.9,87.1,32.1
		C87.1,32.1,87.1,32.1,87.1,32.1z"/>
	<path class="st3" d="M63.4,120.9c-2.1-1.6-4-3.6-5.5-5.9c-2.7-4.1-4.7-9-6-13.8c-4.6-16.7-5.8-34.7-0.2-51c3.3,1.3,7,1.9,10.6,1.5
		c-0.7,2.3-1.3,4.6-1.8,6.9c-0.8,3.7-1.4,7.5-1.8,11.4c-0.4,3.7-0.6,7.4-0.6,11.1c0,11.3,1.5,22.6,3.7,33.7
		C62.2,117,62.7,119,63.4,120.9z"/>
	<path class="st3" d="M98.3,77.6c-1,7.8-3.4,18.5-8,26.6c-2.5,4.3-5,7.8-7.5,11.3c-1.2,1.6-2.6,3.2-4.1,4.5c0.2-0.6,0.4-1.2,0.6-1.8
		c3.9-11.1,7.5-22.3,9.3-33.8c0.7-4.3,1.2-8.8,1.3-13.2c0.1-4,0-8-0.5-12c-0.3-2.3-0.7-4.7-1.2-7c1.2,0.2,2.5,0.3,3.8,0.2
		c3.4-0.2,5.3-0.4,6.9-1.8c0.4,2.5,0.6,5.1,0.7,7.7C99.8,64.7,99.2,71.3,98.3,77.6z"/>
	<path class="st0" d="M165.6,143.8c0.9-1,1.9-1.9,2.9-2.8c0.3-0.3,0.2-0.9-0.3-1c-3.6-1.1-6.8-3.2-8.4-6.8c-0.6-1.3-1.6-4.9,0.6-4.9
		c1.6,0,3.2,0.1,4.8,0.2c4.4,0.3,8.8,1.2,13.2,0.8c3.9-0.4,7.7-1.7,11.4-3.2c0.7-0.3,0.4-1.5-0.3-1.2c-3.7,1.4-7.6,2.8-11.6,3.2
		c-2.4,0.2-4.9,0-7.3-0.3c-2.9-0.4-5.9-0.6-8.8-0.7c-1.2-0.1-3.3-0.4-3.8,1.1s-0.1,3.8,0.5,5.1c1.6,4.1,5.3,6.6,9.4,7.9l-0.3-1
		c-0.9,0.9-1.9,1.9-2.9,2.8C164.2,143.5,165,144.4,165.6,143.8L165.6,143.8L165.6,143.8z"/>
	<g>
		<path class="st4" d="M62.7,31.4c0,1-0.2,2.3-0.4,3.4c-0.5-0.1-1.1-0.2-1.7-0.3c0.1-0.7,0.2-1.5,0.2-2.1s-0.1-1.5-0.5-1.8
			c-0.2-0.2-0.4-0.4-0.6-0.4C59,30.1,58.3,31,58,31.9c-0.2,0.7-0.3,1.5-0.3,2.4c-0.4,0-0.7,0-1.1,0c-0.6,0-1.2,0-1.8,0.1
			c0.1-1.3,0.2-2.5,0.7-3.6c0-0.1,0-0.1,0.1-0.2l0.1-0.1l0.1-0.2c0.4-0.8,1-1.5,1.7-2c0.1-0.1,0.2-0.1,0.3-0.2
			c0.7-0.5,1.5-0.8,2.3-0.7c0.2,0,0.3,0.1,0.5,0.1c0.4,0.1,0.8,0.3,1.1,0.6C62.4,28.8,62.7,30.3,62.7,31.4z"/>
		<path class="st0" d="M62.1,31.4c0,1.1-0.1,2.2-0.4,3.2l0.8-0.4c-0.6-0.1-1.2-0.2-1.8-0.3l0.6,0.8c0.2-1,0.3-2,0.2-3
			c-0.1-0.9-0.5-1.9-1.5-2.1s-1.8,0.7-2.2,1.5c-0.5,1-0.6,2.1-0.7,3.3l0.6-0.6c-1,0-2.1,0-3.1,0.1l0.8,0.6c0.1-1.2,0.2-2.5,0.8-3.6
			c0.5-1,1.2-1.8,2.2-2.4s2.2-0.5,3,0.4C61.9,29.4,62.1,30.5,62.1,31.4c0,0.8,1.2,0.8,1.2,0c0-1-0.2-2-0.7-2.9
			c-0.5-1-1.5-1.6-2.5-1.8c-2.2-0.4-4.4,1.6-5.2,3.5c-0.6,1.3-0.8,2.7-0.9,4.1c0,0.5,0.4,0.7,0.8,0.6c0.9-0.1,1.9-0.1,2.8-0.1
			c0.3,0,0.6-0.3,0.6-0.6c0-0.8,0-1.6,0.4-2.4c0.1-0.3,0.6-1.2,1-1.1c0.5,0.1,0.5,1,0.5,1.4c0,0.7,0,1.5-0.2,2.2
			c-0.1,0.4,0.2,0.7,0.6,0.8c0.5,0.1,1,0.2,1.5,0.2c0.3,0.1,0.7-0.1,0.8-0.4c0.2-1.2,0.4-2.4,0.4-3.5C63.3,30.6,62.1,30.6,62.1,31.4
			L62.1,31.4z"/>
	</g>
	<path class="st0" d="M60.9,32.4c0,0.7-0.1,1.5-0.2,2.1c-1-0.1-2-0.2-3-0.3c0-0.8,0.1-1.6,0.3-2.4c0.3-0.9,1-1.9,1.8-1.8
		c0.2,0,0.5,0.2,0.6,0.4C60.8,30.9,60.9,31.7,60.9,32.4z"/>
	<g>
		<path class="st5" d="M355.3,70.9c-2,15.5-6.8,36.6-15.9,52.5c-4.9,8.5-9.8,15.4-14.9,22.3c-2.4,3.2-5,6.3-8,8.9
			c0.4-1.2,0.9-2.4,1.3-3.5c7.7-21.8,14.8-44,18.5-66.8c1.4-8.6,2.3-17.3,2.5-26c-13,8.7-24.9,18.9-35.5,30.3
			c-7.6-11.9-16.4-22.8-26.3-32.5c-0.8,7.3-1.1,14.7-1.1,22c0,22.4,3,44.7,7.4,66.6c0.8,4,1.7,8,3.1,11.8
			c-4.2-3.1-7.9-7.2-10.8-11.6c-5.4-8.1-9.2-17.9-11.8-27.2c-9.1-33-11.4-68.5-0.5-100.8c6.6,2.5,13.9,3.7,20.9,3.1
			c-1.4,4.5-2.6,9-3.6,13.6c9.2,8.1,17.6,17.2,25,27.1c9.1-10.4,20-19.3,32.1-26.1c-0.5-4.6-1.3-9.3-2.4-13.8
			c2.5,0.4,4.9,0.5,7.5,0.3c6.7-0.5,10.5-0.9,13.7-3.5c0.8,5,1.2,10,1.3,15.1C358.1,45.5,356.9,58.5,355.3,70.9L355.3,70.9z"/>
		<path class="st0" d="M354.7,70.9c-1.5,11.4-3.9,22.7-7.6,33.5c-1.9,5.7-4.2,11.2-7,16.6c-3,5.7-6.6,11.1-10.3,16.4
			c-4.1,5.9-8.2,12-13.7,16.8l1,0.6c8.8-24.1,16.7-48.8,20.3-74.3c1-7.4,1.7-14.8,1.9-22.3c0-0.5-0.5-0.8-0.9-0.5
			c-13,8.7-25,18.9-35.6,30.4l1,0.1c-7.5-11.8-16.4-22.8-26.4-32.6c-0.4-0.4-1-0.1-1.1,0.4c-2.7,26.5-0.2,53.1,4.5,79.2
			c1.3,7.2,2.4,14.6,4.9,21.5l0.9-0.7c-7.5-5.7-12.7-13.8-16.5-22.3s-6.5-18-8.5-27.3c-4.2-18.8-6.1-38.3-4.3-57.6
			c1-10.8,3.2-21.5,6.6-31.8l-0.8,0.4c6.7,2.5,13.9,3.7,21.1,3.1l-0.6-0.8c-1.4,4.5-2.6,9-3.6,13.6c0,0.2,0,0.5,0.2,0.6
			c9.2,8.1,17.5,17.1,24.9,26.9c0.2,0.3,0.7,0.5,1,0.1c9.1-10.4,20-19.2,32-26c0.2-0.1,0.3-0.3,0.3-0.5c-0.6-4.7-1.4-9.4-2.4-14
			l-0.8,0.8c4.5,0.7,9.1,0.4,13.6-0.2c3-0.4,5.8-1.2,8.2-3.1l-1-0.3C358.5,35.4,357,53.4,354.7,70.9c-0.1,0.8,1.1,0.8,1.2,0
			c2.3-17.7,3.8-35.7,1.1-53.5c-0.1-0.5-0.7-0.5-1-0.3c-2.3,1.9-5.1,2.5-8,2.9c-4.2,0.5-8.4,0.8-12.6,0.1c-0.5-0.1-0.9,0.3-0.8,0.8
			c1,4.5,1.8,9.1,2.4,13.7l0.3-0.5c-12.1,6.9-23,15.8-32.2,26.2l1,0.1c-7.5-9.9-15.9-19-25.1-27.2l0.2,0.6c1-4.6,2.2-9.1,3.6-13.6
			c0.1-0.4-0.2-0.8-0.6-0.8c-7.1,0.6-14.1-0.5-20.7-3c-0.3-0.1-0.7,0.1-0.8,0.4c-6.3,18.6-8.2,38.5-7,58c0.6,9.8,2,19.6,4.1,29.2
			s4.5,19.1,8.3,28.1c4,9.5,9.5,18.6,17.9,24.9c0.4,0.3,1.1-0.2,0.9-0.7c-2.3-6-3.3-12.5-4.4-18.8s-2.3-13.1-3.2-19.6
			c-1.8-13.1-2.9-26.2-2.9-39.4c0-7.5,0.4-15,1.1-22.5l-1.1,0.4c9.9,9.7,18.7,20.6,26.2,32.3c0.2,0.3,0.7,0.4,1,0.1
			c10.6-11.4,22.5-21.5,35.4-30.2l-0.9-0.5c-0.7,26-7.2,51.3-15.2,75.9c-2.2,6.8-4.5,13.6-7,20.3c-0.2,0.6,0.6,1,1,0.6
			c4.9-4.3,8.6-9.6,12.4-14.9s7.5-10.9,10.8-16.7c6-10.6,9.8-22.3,12.5-34.1c1.4-6.1,2.5-12.2,3.3-18.3
			C356,70.2,354.8,70.2,354.7,70.9L354.7,70.9z"/>
	</g>
</g>
<g id="b">
</g>
<g id="c">
	<g class="st6">
		<path class="st5" d="M439,47l-1.9,29.7c-1.2-0.2-3.6-0.5-7.4-0.8c-2.3-0.1-4.9-0.2-8-0.2l-0.8,15.2c3.2,0.1,8.2-0.2,15-0.7
			c-0.3,1.4-0.8,3.7-1.5,7c-0.3,1.9-0.7,4.2-1.1,6.9c-0.9-0.2-2.9-0.5-6.1-0.8c-2.4-0.2-4.7-0.3-7-0.2l-0.4,16.4h-26.5l-1.5-37
			c-0.3-8.5-1-20.3-2.1-35.5H439z"/>
	</g>
	<g class="st6">
		<path class="st7" d="M439,47l-1.9,29.7c-1.2-0.2-3.6-0.5-7.4-0.8c-2.3-0.1-4.9-0.2-8-0.2l-0.8,15.2c3.2,0.1,8.2-0.2,15-0.7
			c-0.3,1.4-0.8,3.7-1.5,7c-0.3,1.9-0.7,4.2-1.1,6.9c-0.9-0.2-2.9-0.5-6.1-0.8c-2.4-0.2-4.7-0.3-7-0.2l-0.4,16.4h-26.5l-1.5-37
			c-0.3-8.5-1-20.3-2.1-35.5H439z"/>
	</g>
	<g class="st6">
		<path class="st5" d="M497.7,83.2c0,4.6-1.3,8.7-3.9,12.3c-2.3,3.1-5.2,5.4-8.6,6.7c0.7,1.1,2.5,3.5,5.4,7.1
			c1.4,1.7,3.6,3.9,6.6,6.6c-1.2,0.4-3.8,1.5-7.8,3.2c-2.8,1.3-5.5,2.5-8,3.8c-0.7-0.9-2.4-3.2-4.9-7c-1.2-1.9-2.9-5.1-5.1-9.7h-0.1
			l-0.4,13.2h-21.3c-0.3-5.5-0.7-14.5-1.2-27.1c-0.2-7.4-0.7-17.7-1.5-30.8c6.9-0.7,13.2-1.1,18.9-1.1
			C487.1,60.4,497.7,68,497.7,83.2z M480.5,91.3c0-2.4-1-4.1-3-5.1c-1.5-0.8-3.3-1.1-5.6-1l-0.2,12.9c2.1,0,4-0.5,5.6-1.4
			C479.4,95.5,480.5,93.7,480.5,91.3z"/>
		<path class="st5" d="M554.3,89.2c0,8.9-2.3,16.4-6.9,22.5c-4.8,6.4-11,9.6-18.5,9.6c-7.7,0-14-3.2-18.8-9.7
			c-4.5-6.1-6.8-13.6-6.8-22.5c0-9.5,2.5-16.9,7.4-22.3c4.6-5.1,10.7-7.6,18.2-7.6c7.3,0,13.3,2.6,18,7.7
			C551.9,72.3,554.3,79.8,554.3,89.2z M536.2,95.8c0-7-2.4-10.5-7.1-10.5c-4.6,0-6.9,3.5-6.9,10.6c0,2.8,0.6,5.4,1.8,7.9
			c1.4,2.7,3,4.1,5,4.1c1.9,0,3.6-1.4,5.1-4.2C535.5,101.2,536.2,98.6,536.2,95.8z"/>
		<path class="st5" d="M587.3,61.5l-1.5,30.8c-0.3,6.6-0.6,15.7-1,27.1h-21.2l-2.6-58H587.3z"/>
		<path class="st5" d="M645.8,90.9c0,9.1-2.8,16.2-8.5,21.4c-5.8,5.4-14,8.1-24.6,8.1c-6.8,0-12-0.3-15.7-1l-1-28
			c-0.3-7.2-0.9-17.1-1.8-29.8c5.5-0.8,11.2-1.2,17.1-1.2c10.6,0,18.9,2.5,24.9,7.4C642.6,73.1,645.8,80.8,645.8,90.9z M630.3,95.5
			c0-3.7-1.2-6.4-3.6-8.2c-2-1.5-4.5-2.1-7.6-2l-0.5,23.7c3.2-0.2,5.9-1.2,7.9-3.1C629,103.5,630.3,100.1,630.3,95.5z"/>
	</g>
	<g class="st6">
		<path class="st7" d="M497.7,83.2c0,4.6-1.3,8.7-3.9,12.3c-2.3,3.1-5.2,5.4-8.6,6.7c0.7,1.1,2.5,3.5,5.4,7.1
			c1.4,1.7,3.6,3.9,6.6,6.6c-1.2,0.4-3.8,1.5-7.8,3.2c-2.8,1.3-5.5,2.5-8,3.8c-0.7-0.9-2.4-3.2-4.9-7c-1.2-1.9-2.9-5.1-5.1-9.7h-0.1
			l-0.4,13.2h-21.3c-0.3-5.5-0.7-14.5-1.2-27.1c-0.2-7.4-0.7-17.7-1.5-30.8c6.9-0.7,13.2-1.1,18.9-1.1
			C487.1,60.4,497.7,68,497.7,83.2z M480.5,91.3c0-2.4-1-4.1-3-5.1c-1.5-0.8-3.3-1.1-5.6-1l-0.2,12.9c2.1,0,4-0.5,5.6-1.4
			C479.4,95.5,480.5,93.7,480.5,91.3z"/>
		<path class="st7" d="M554.3,89.2c0,8.9-2.3,16.4-6.9,22.5c-4.8,6.4-11,9.6-18.5,9.6c-7.7,0-14-3.2-18.8-9.7
			c-4.5-6.1-6.8-13.6-6.8-22.5c0-9.5,2.5-16.9,7.4-22.3c4.6-5.1,10.7-7.6,18.2-7.6c7.3,0,13.3,2.6,18,7.7
			C551.9,72.3,554.3,79.8,554.3,89.2z M536.2,95.8c0-7-2.4-10.5-7.1-10.5c-4.6,0-6.9,3.5-6.9,10.6c0,2.8,0.6,5.4,1.8,7.9
			c1.4,2.7,3,4.1,5,4.1c1.9,0,3.6-1.4,5.1-4.2C535.5,101.2,536.2,98.6,536.2,95.8z"/>
		<path class="st7" d="M587.3,61.5l-1.5,30.8c-0.3,6.6-0.6,15.7-1,27.1h-21.2l-2.6-58H587.3z"/>
		<path class="st7" d="M645.8,90.9c0,9.1-2.8,16.2-8.5,21.4c-5.8,5.4-14,8.1-24.6,8.1c-6.8,0-12-0.3-15.7-1l-1-28
			c-0.3-7.2-0.9-17.1-1.8-29.8c5.5-0.8,11.2-1.2,17.1-1.2c10.6,0,18.9,2.5,24.9,7.4C642.6,73.1,645.8,80.8,645.8,90.9z M630.3,95.5
			c0-3.7-1.2-6.4-3.6-8.2c-2-1.5-4.5-2.1-7.6-2l-0.5,23.7c3.2-0.2,5.9-1.2,7.9-3.1C629,103.5,630.3,100.1,630.3,95.5z"/>
	</g>
	<g class="st6">
		<path class="st5" d="M728,76.4c-1.7-0.5-3.9-0.8-6.7-0.8c-5,0-9.1,1.3-12.3,4c-3.6,3-5.3,7.2-5.3,12.8c0,4.3,1.4,7.9,4.2,10.7
			c2.8,2.8,6.5,4.2,11.1,4.2c3.1,0,6.1-0.8,8.9-2.3c-0.3,1.3-0.8,3.7-1.6,7.1c-0.4,2.3-0.9,4.7-1.3,7.2c-3.5,1.4-8,2-13.5,2
			c-10,0-18.5-3.3-25.6-10.1c-7.7-7.3-11.5-16.8-11.5-28.5c0-10.8,3.3-19.6,9.9-26.2c7-7.1,16.8-10.7,29.2-10.7c6,0,10.3,0.3,13,1
			L728,76.4z"/>
	</g>
	<g class="st6">
		<path class="st7" d="M728,76.4c-1.7-0.5-3.9-0.8-6.7-0.8c-5,0-9.1,1.3-12.3,4c-3.6,3-5.3,7.2-5.3,12.8c0,4.3,1.4,7.9,4.2,10.7
			c2.8,2.8,6.5,4.2,11.1,4.2c3.1,0,6.1-0.8,8.9-2.3c-0.3,1.3-0.8,3.7-1.6,7.1c-0.4,2.3-0.9,4.7-1.3,7.2c-3.5,1.4-8,2-13.5,2
			c-10,0-18.5-3.3-25.6-10.1c-7.7-7.3-11.5-16.8-11.5-28.5c0-10.8,3.3-19.6,9.9-26.2c7-7.1,16.8-10.7,29.2-10.7c6,0,10.3,0.3,13,1
			L728,76.4z"/>
	</g>
	<g class="st6">
		<path class="st5" d="M775.8,107.7c-0.3,1-0.7,2.9-1.4,5.7c-0.4,1.6-0.7,3.5-0.9,5.7h-34.2c-0.1-5.9-0.4-15.7-0.9-29.2
			c-0.3-6.9-0.9-16.5-1.8-28.8h26.2l-2.2,48.1c2.4,0,6.1-0.3,11-0.8C772.6,108.4,774,108.1,775.8,107.7z"/>
		<path class="st5" d="M807.6,61.2L806.1,92c-0.3,6.6-0.6,15.7-1,27.1H784l-2.6-58H807.6z"/>
		<path class="st5" d="M875.6,61.2c-0.4,5.3-0.9,14.9-1.5,28.9c-0.4,8.6-0.6,18.3-0.8,29.1h-13.7l-0.4-17.8l-13.3,19.2l-14.4-19
			l-0.4,17.6h-13.6c-0.2-5.8-0.5-15.5-1-29.2c-0.4-7.9-1-17.5-1.9-28.8h21.6c0.8,1.8,2.1,4.8,3.9,8.9c1.4,2.9,3.3,6.4,5.8,10.3
			c1.1-1.7,3.1-5.2,6-10.6c1-2,2.4-4.9,4-8.6H875.6z"/>
	</g>
	<g class="st6">
		<path class="st7" d="M775.8,107.7c-0.3,1-0.7,2.9-1.4,5.7c-0.4,1.6-0.7,3.5-0.9,5.7h-34.2c-0.1-5.9-0.4-15.7-0.9-29.2
			c-0.3-6.9-0.9-16.5-1.8-28.8h26.2l-2.2,48.1c2.4,0,6.1-0.3,11-0.8C772.6,108.4,774,108.1,775.8,107.7z"/>
		<path class="st7" d="M807.6,61.2L806.1,92c-0.3,6.6-0.6,15.7-1,27.1H784l-2.6-58H807.6z"/>
		<path class="st7" d="M875.6,61.2c-0.4,5.3-0.9,14.9-1.5,28.9c-0.4,8.6-0.6,18.3-0.8,29.1h-13.7l-0.4-17.8l-13.3,19.2l-14.4-19
			l-0.4,17.6h-13.6c-0.2-5.8-0.5-15.5-1-29.2c-0.4-7.9-1-17.5-1.9-28.8h21.6c0.8,1.8,2.1,4.8,3.9,8.9c1.4,2.9,3.3,6.4,5.8,10.3
			c1.1-1.7,3.1-5.2,6-10.6c1-2,2.4-4.9,4-8.6H875.6z"/>
	</g>
</g>
</svg>
